<?xml version="1.0" encoding="UTF-8" standalone="no"?>
<svg
   xmlns:dc="http://purl.org/dc/elements/1.1/"
   xmlns:cc="http://creativecommons.org/ns#"
   xmlns:rdf="http://www.w3.org/1999/02/22-rdf-syntax-ns#"
   xmlns:svg="http://www.w3.org/2000/svg"
   xmlns="http://www.w3.org/2000/svg"
   viewBox="0 0 1586.6667 844"
   height="844"
   width="1586.6667"
   xml:space="preserve"
   id="svg2"
   version="1.1"><metadata
     id="metadata8"><rdf:RDF><cc:Work
         rdf:about=""><dc:format>image/svg+xml</dc:format><dc:type
           rdf:resource="http://purl.org/dc/dcmitype/StillImage" /></cc:Work></rdf:RDF></metadata><defs
     id="defs6" /><g
     transform="matrix(1.3333333,0,0,-1.3333333,0,844)"
     id="g10"><g
       transform="scale(0.1)"
       id="g12"><path
         id="path14"
         style="fill:#ffffff;fill-opacity:1;fill-rule:nonzero;stroke:none"
         d="m 8170,5300 c 0,110.45 -134.32,200 -300,200 -165.68,0 -300,-89.55 -300,-200 0,-110.45 134.32,-200 300,-200 165.68,0 300,89.55 300,200" /><path
         id="path16"
         style="fill:none;stroke:#000000;stroke-width:10;stroke-linecap:butt;stroke-linejoin:miter;stroke-miterlimit:10;stroke-dasharray:none;stroke-opacity:1"
         d="m 8170,5300 c 0,110.45 -134.32,200 -300,200 -165.68,0 -300,-89.55 -300,-200 0,-110.45 134.32,-200 300,-200 165.68,0 300,89.55 300,200" /><path
         id="path18"
         style="fill:#ffffff;fill-opacity:1;fill-rule:nonzero;stroke:none"
         d="m 8130,5300 c 0,88.36 -116.41,160 -260,160 -143.59,0 -260,-71.64 -260,-160 0,-88.36 116.41,-160 260,-160 143.59,0 260,71.64 260,160" /><path
         id="path20"
         style="fill:none;stroke:#000000;stroke-width:10;stroke-linecap:butt;stroke-linejoin:miter;stroke-miterlimit:10;stroke-dasharray:none;stroke-opacity:1"
         d="m 8130,5300 c 0,88.36 -116.41,160 -260,160 -143.59,0 -260,-71.64 -260,-160 0,-88.36 116.41,-160 260,-160 143.59,0 260,71.64 260,160" /><g
         transform="scale(10)"
         id="g22"><text
           id="text26"
           style="font-variant:normal;font-weight:normal;font-size:12px;font-family:Verdana;-inkscape-font-specification:Verdana;writing-mode:lr-tb;fill:#000000;fill-opacity:1;fill-rule:nonzero;stroke:none"
           transform="matrix(1,0,0,-1,779.197,526)"><tspan
             id="tspan24"
             y="0"
             x="0 8.2320004">BC</tspan></text>
</g><path
         id="path28"
         style="fill:#e3e3ff;fill-opacity:1;fill-rule:nonzero;stroke:none"
         d="m 7440,5240 h 180 v 120 h -180 z" /><path
         id="path30"
         style="fill:none;stroke:#4d66cc;stroke-width:10;stroke-linecap:butt;stroke-linejoin:miter;stroke-miterlimit:10;stroke-dasharray:none;stroke-opacity:1"
         d="m 7440,5240 h 180 v 120 h -180 z" /><g
         transform="scale(10)"
         id="g32"><text
           id="text36"
           style="font-variant:normal;font-weight:normal;font-size:12px;font-family:Verdana;-inkscape-font-specification:Verdana;writing-mode:lr-tb;fill:#4d66cc;fill-opacity:1;fill-rule:nonzero;stroke:none"
           transform="matrix(1,0,0,-1,746,526)"><tspan
             id="tspan34"
             y="0"
             x="0 5.052">In</tspan></text>
</g><g
         transform="scale(10)"
         id="g38"><text
           id="text54"
           style="font-variant:normal;font-weight:normal;font-size:12px;font-family:Verdana;-inkscape-font-specification:Verdana;writing-mode:lr-tb;fill:#000000;fill-opacity:1;fill-rule:nonzero;stroke:none"
           transform="matrix(1,0,0,-1,811,502)"><tspan
             id="tspan40"
             y="0"
             x="0 5.052 14.028 21.42 28.524 36.756001 40.043999 47.327999 53.580002 60.683998">INTxBlockt</tspan><tspan
             id="tspan42"
             y="-115"
             x="-22 -14.368 -6.7360001 -1.288 6.3439999 10.712 14.936 22.556 27.608 36.860001 41.084 50.900002 55.124001 62.756001 67.124001 71.348 78.823997 83.947998 91.099998 98.204002 106.436 109.724 117.008 123.26 130.364 139.37601 146.588 152.84 160.436 164.66 174.476 178.7 184.20799 191.68401 198.836 206.43201 213.584 219.836 223.12399 229.37601 237.608 240.896 248.17999 254.43201 261.53601 267.04401 271.41199">1`(1, {ID = 1, prevBlockHash = &quot;genesisBlock&quot;, </tspan><tspan
             id="tspan44"
             y="-101"
             x="-22 -13.768 -10.48 -3.1960001 3.056 10.16 16.412001 24.007999 31.219999 34.507999 42.104 51.355999 54.644001 58.868 63.091999 70.484001 77.695999 82.82 90.295998 97.447998 102.176 106.4 116.216 120.44 128.07201 135.70399 140.07201 144.29601 149.024 156.12801 162.812 166.10001 172.35201 177.08 181.304 191.12 195.34399 200.79201 208.412 213.464 222.716 226.94 236.756 240.98 248.612 252.98">BlockchainDiffTarget = 10, txList = [{ID = 1, </tspan><tspan
             id="tspan46"
             y="-87"
             x="-22 -17.775999 -12.652 -5.368 6.3080001 10.532 20.348 24.572001 30.08 37.712002 44.816002 53.599998 59.852001 67.003998 72.127998 79.760002 85.267998 89.636002 93.860001 98.587997 105.872 110.096 119.912 124.136 129.644 137.276 144.38 153.164 159.416 166.56799 171.692 179.32401 184.832 189.2 193.424 200.636 212.312 219.59599 227.192 234.78799 239.51601 243.74001 253.556 257.78 265.41199 273.04401 277.41199">from = &quot;0xUser1&quot;, to = &quot;0xUser2&quot;, amount = 10, </tspan><tspan
             id="tspan48"
             y="-73"
             x="-22 -14.524 -6.928 0.54799998 7.652 14.804 21.908001 26.132 35.948002 40.172001 45.68 53.155998 60.751999 68.227997 76.543999 83.695999 90.800003 96.248001 105.032 111.284 118.436 123.56 131.192 136.7 141.06799 145.29201 150.02 157.12399 165.332 168.62 176.09599 180.32001 190.136 194.36 199.868 208.076 211.364 218.84 226.472 231.98 239.60001 243.968">pubkey = &quot;pubKey-User1&quot;, txSig = &quot;Sig1&quot;}, </tspan><tspan
             id="tspan50"
             y="-59"
             x="-22 -14.38 -9.3280001 -0.075999998 4.1479998 13.964 18.188 25.82 30.188 34.411999 38.636002 43.759998 51.043999 62.720001 66.944 76.760002 80.984001 86.491997 94.124001 101.228 110.012 116.264 123.416 128.53999 136.172 141.67999 146.048 150.272 155 162.284 166.508 176.32401 180.548 186.056 193.688 200.79201 209.576 215.828 222.98 228.104 235.73599 241.244 245.612">{ID = 2, from = &quot;0xUser3&quot;, to = &quot;0xUser4&quot;, </tspan><tspan
             id="tspan52"
             y="-45"
             x="-22 -14.788 -3.112 4.1719999 11.768 19.364 24.091999 28.316 38.132 42.355999 49.987999 57.619999 61.987999 66.211998 73.688004 81.283997 88.760002 95.863998 103.016 110.12 114.344 124.16 128.384 133.892 141.368 148.964 156.44 164.756 171.908 179.01199 184.46001 193.244 199.496 206.64799 211.772 219.40401 224.912 229.28 233.504 238.23199 245.336 253.54401 256.832 264.30801 268.53201 278.34799 282.57199 288.07999 296.28799 299.57599 307.052 314.68399 320.19199 327.81201 333.26001 340.88">amount = 20, pubkey = &quot;pubKey-User3&quot;, txSig = &quot;Sig2&quot;}]})</tspan></text>
</g><path
         id="path56"
         style="fill:#e3e3ff;fill-opacity:1;fill-rule:nonzero;stroke:none"
         d="m 7440,5240 h 180 v 120 h -180 z" /><path
         id="path58"
         style="fill:none;stroke:#4d66cc;stroke-width:10;stroke-linecap:butt;stroke-linejoin:miter;stroke-miterlimit:10;stroke-dasharray:none;stroke-opacity:1"
         d="m 7440,5240 h 180 v 120 h -180 z" /><g
         transform="scale(10)"
         id="g60"><text
           id="text64"
           style="font-variant:normal;font-weight:normal;font-size:12px;font-family:Verdana;-inkscape-font-specification:Verdana;writing-mode:lr-tb;fill:#4d66cc;fill-opacity:1;fill-rule:nonzero;stroke:none"
           transform="matrix(1,0,0,-1,746,526)"><tspan
             id="tspan62"
             y="0"
             x="0 5.052">In</tspan></text>
</g><path
         id="path66"
         style="fill:#ffffff;fill-opacity:1;fill-rule:nonzero;stroke:none"
         d="m 6070,5300 c 0,93.89 -205.95,170 -460,170 -254.05,0 -460,-76.11 -460,-170 0,-93.89 205.95,-170 460,-170 254.05,0 460,76.11 460,170" /><path
         id="path68"
         style="fill:none;stroke:#000000;stroke-width:10;stroke-linecap:butt;stroke-linejoin:miter;stroke-miterlimit:10;stroke-dasharray:none;stroke-opacity:1"
         d="m 6070,5300 c 0,93.89 -205.95,170 -460,170 -254.05,0 -460,-76.11 -460,-170 0,-93.89 205.95,-170 460,-170 254.05,0 460,76.11 460,170" /><path
         id="path70"
         style="fill:#ffffff;fill-opacity:1;fill-rule:nonzero;stroke:none"
         d="m 6030,5300 c 0,71.8 -188.04,130 -420,130 -231.96,0 -420,-58.2 -420,-130 0,-71.8 188.04,-130 420,-130 231.96,0 420,58.2 420,130" /><path
         id="path72"
         style="fill:none;stroke:#000000;stroke-width:10;stroke-linecap:butt;stroke-linejoin:miter;stroke-miterlimit:10;stroke-dasharray:none;stroke-opacity:1"
         d="m 6030,5300 c 0,71.8 -188.04,130 -420,130 -231.96,0 -420,-58.2 -420,-130 0,-71.8 188.04,-130 420,-130 231.96,0 420,58.2 420,130" /><g
         transform="scale(10)"
         id="g74"><text
           id="text78"
           style="font-variant:normal;font-weight:normal;font-size:12px;font-family:Verdana;-inkscape-font-specification:Verdana;writing-mode:lr-tb;fill:#000000;fill-opacity:1;fill-rule:nonzero;stroke:none"
           transform="matrix(1,0,0,-1,529.746,526)"><tspan
             id="tspan76"
             y="0"
             x="0 8.2080002 15.36 20.483999 23.771999 27.996 31.284 38.436001 45.911999 54.144001">VerifiedBC</tspan></text>
</g><path
         id="path80"
         style="fill:#e3e3ff;fill-opacity:1;fill-rule:nonzero;stroke:none"
         d="m 5110,5090 h 280 v 120 h -280 z" /><path
         id="path82"
         style="fill:none;stroke:#4d66cc;stroke-width:10;stroke-linecap:butt;stroke-linejoin:miter;stroke-miterlimit:10;stroke-dasharray:none;stroke-opacity:1"
         d="m 5110,5090 h 280 v 120 h -280 z" /><g
         transform="scale(10)"
         id="g84"><text
           id="text88"
           style="font-variant:normal;font-weight:normal;font-size:12px;font-family:Verdana;-inkscape-font-specification:Verdana;writing-mode:lr-tb;fill:#4d66cc;fill-opacity:1;fill-rule:nonzero;stroke:none"
           transform="matrix(1,0,0,-1,513,511)"><tspan
             id="tspan86"
             y="0"
             x="0 9.4440002 17.040001">Out</tspan></text>
</g><g
         transform="scale(10)"
         id="g90"><text
           id="text94"
           style="font-variant:normal;font-weight:normal;font-size:12px;font-family:Verdana;-inkscape-font-specification:Verdana;writing-mode:lr-tb;fill:#000000;fill-opacity:1;fill-rule:nonzero;stroke:none"
           transform="matrix(1,0,0,-1,611,526)"><tspan
             id="tspan92"
             y="0"
             x="0 5.052 14.028 21.42 28.524 36.756001 40.043999 47.327999 53.580002 60.683998">INTxBlockt</tspan></text>
</g><path
         id="path96"
         style="fill:#e3e3ff;fill-opacity:1;fill-rule:nonzero;stroke:none"
         d="m 5110,5090 h 280 v 120 h -280 z" /><path
         id="path98"
         style="fill:none;stroke:#4d66cc;stroke-width:10;stroke-linecap:butt;stroke-linejoin:miter;stroke-miterlimit:10;stroke-dasharray:none;stroke-opacity:1"
         d="m 5110,5090 h 280 v 120 h -280 z" /><g
         transform="scale(10)"
         id="g100"><text
           id="text104"
           style="font-variant:normal;font-weight:normal;font-size:12px;font-family:Verdana;-inkscape-font-specification:Verdana;writing-mode:lr-tb;fill:#4d66cc;fill-opacity:1;fill-rule:nonzero;stroke:none"
           transform="matrix(1,0,0,-1,513,511)"><tspan
             id="tspan102"
             y="0"
             x="0 9.4440002 17.040001">Out</tspan></text>
</g><path
         id="path106"
         style="fill:#ffffff;fill-opacity:1;fill-rule:nonzero;stroke:none"
         d="m 2680,2600 c 0,193.3 -192.52,350 -430,350 -237.48,0 -430,-156.7 -430,-350 0,-193.3 192.52,-350 430,-350 237.48,0 430,156.7 430,350" /><path
         id="path108"
         style="fill:none;stroke:#000000;stroke-width:10;stroke-linecap:butt;stroke-linejoin:miter;stroke-miterlimit:10;stroke-dasharray:none;stroke-opacity:1"
         d="m 2680,2600 c 0,193.3 -192.52,350 -430,350 -237.48,0 -430,-156.7 -430,-350 0,-193.3 192.52,-350 430,-350 237.48,0 430,156.7 430,350" /><path
         id="path110"
         style="fill:#ffffff;fill-opacity:1;fill-rule:nonzero;stroke:none"
         d="m 2640,2600 c 0,171.21 -174.61,310 -390,310 -215.39,0 -390,-138.79 -390,-310 0,-171.21 174.61,-310 390,-310 215.39,0 390,138.79 390,310" /><path
         id="path112"
         style="fill:none;stroke:#000000;stroke-width:10;stroke-linecap:butt;stroke-linejoin:miter;stroke-miterlimit:10;stroke-dasharray:none;stroke-opacity:1"
         d="m 2640,2600 c 0,171.21 -174.61,310 -390,310 -215.39,0 -390,-138.79 -390,-310 0,-171.21 174.61,-310 390,-310 215.39,0 390,138.79 390,310" /><g
         transform="scale(10)"
         id="g114"><text
           id="text118"
           style="font-variant:normal;font-weight:normal;font-size:12px;font-family:Verdana;-inkscape-font-specification:Verdana;writing-mode:lr-tb;fill:#000000;fill-opacity:1;fill-rule:nonzero;stroke:none"
           transform="matrix(1,0,0,-1,200.9,256)"><tspan
             id="tspan116"
             y="0"
             x="0 10.116 17.327999 23.58 31.176001 34.464001 42.060001">Machine</tspan></text>
</g><path
         id="path120"
         style="fill:#e3e3ff;fill-opacity:1;fill-rule:nonzero;stroke:none"
         d="m 1680,2260 h 460 v 120 h -460 z" /><path
         id="path122"
         style="fill:none;stroke:#4d66cc;stroke-width:10;stroke-linecap:butt;stroke-linejoin:miter;stroke-miterlimit:10;stroke-dasharray:none;stroke-opacity:1"
         d="m 1680,2260 h 460 v 120 h -460 z" /><g
         transform="scale(10)"
         id="g124"><text
           id="text128"
           style="font-variant:normal;font-weight:normal;font-size:12px;font-family:Verdana;-inkscape-font-specification:Verdana;writing-mode:lr-tb;fill:#4d66cc;fill-opacity:1;fill-rule:nonzero;stroke:none"
           transform="matrix(1,0,0,-1,170,228)"><tspan
             id="tspan126"
             y="0"
             x="0 5.052 12.648 18.096001 27.540001 35.136002">In/Out</tspan></text>
</g><g
         transform="scale(10)"
         id="g130"><text
           id="text146"
           style="font-variant:normal;font-weight:normal;font-size:12px;font-family:Verdana;-inkscape-font-specification:Verdana;writing-mode:lr-tb;fill:#000000;fill-opacity:1;fill-rule:nonzero;stroke:none"
           transform="matrix(1,0,0,-1,162,301)"><tspan
             id="tspan132"
             y="0"
             x="0 5.052 14.028 21.42 28.524 38.639999 45.852001 52.104 59.700001 62.987999 70.584 77.736 82.788002 90.264 97.416 105.012 109.74 113.028 117.756 124.86 131.964 143.832 151.04401 154.332 157.62 164.772">INTxMachineIdentityxWallet</tspan><tspan
             id="tspan134"
             y="93"
             x="-157 -149.368 -141.73599 -136.28799 -128.65601 -124.288 -120.064 -112.444 -103.192 -98.139999 -88.888 -79.071999 -73.564003 -66.087997 -62.799999 -55.324001 -49.875999 -38.200001 -30.568001 -23.464001 -17.212 -9.9280005 -6.6399999 0.95599997 5.684 8.9720001 16.256001 23.851999 29.299999 36.931999 44.563999 50.071999 54.439999 58.664001 66.980003 74.132004 81.236 88.472 95.683998 98.972 104.096 108.32 118.136 122.36 129.98 137.45599 145.052 152.528 160.84399 167.996 175.10001 179.32401 189.14 193.364 198.87199 206.34801 213.944 221.42 229.73599 236.888 243.992 249.44 257.07199 262.57999 266.948 271.172 278.64801 283.772 287.06 294.164 302.48001 309.63199 316.73599 320.95999 330.776 335 340.508 347.98401 353.108 356.396 363.5 371.81601 378.96799 386.07199 391.51999 399.15201 404.66 412.28 419.89999 424.26801">1`(1, {DID=&quot;did:m2xsolution:11&quot;, KeyPair = {pubKey = &quot;pubKey-1&quot;, privKey = &quot;privKey-1&quot;}}, </tspan><tspan
             id="tspan136"
             y="107"
             x="-157 -149.38 -141.172 -133.696 -126.22 -121.096 -113.944 -107.692 -101.44 -91.624001 -86.115997 -78.484001 -71.379997 -61.264 -54.051998 -47.799999 -40.203999 -36.916 -29.32 -22.167999 -13.96 -6.4840002 0.99199998 6.1160002 13.268 19.52 25.771999 31.219999 38.852001 44.360001 48.728001 52.952 61.183998 68.396004 71.683998 78.896004 86.491997 92.744003 99.896004 104.12 113.936 121.568 129.2 136.82001 142.26801 152.084">{Address=&quot;0xMachineAddress-1&quot;, Balance =25})++</tspan><tspan
             id="tspan138"
             y="121"
             x="-157 -149.368 -141.73599 -136.28799 -128.65601 -124.288 -120.064 -112.444 -103.192 -98.139999 -88.888 -79.071999 -73.564003 -66.087997 -62.799999 -55.324001 -49.875999 -38.200001 -30.568001 -23.464001 -17.212 -9.9280005 -6.6399999 0.95599997 5.684 8.9720001 16.256001 23.851999 29.299999 36.931999 44.563999 50.071999 54.439999 58.664001 66.980003 74.132004 81.236 88.472 95.683998 98.972 104.096 108.32 118.136 122.36 129.98 137.45599 145.052 152.528 160.84399 167.996 175.10001 179.32401 189.14 193.364 198.87199 206.34801 213.944 221.42 229.73599 236.888 243.992 249.44 257.07199 262.57999 266.948 271.172 278.64801 283.772 287.06 294.164 302.48001 309.63199 316.73599 320.95999 330.776 335 340.508 347.98401 353.108 356.396 363.5 371.81601 378.96799 386.07199 391.51999 399.15201 404.66 412.28 419.89999 424.26801">1`(2, {DID=&quot;did:m2xsolution:12&quot;, KeyPair = {pubKey = &quot;pubKey-2&quot;, privKey = &quot;privKey-2&quot;}}, </tspan><tspan
             id="tspan140"
             y="135"
             x="-157 -149.38 -141.172 -133.696 -126.22 -121.096 -113.944 -107.692 -101.44 -91.624001 -86.115997 -78.484001 -71.379997 -61.264 -54.051998 -47.799999 -40.203999 -36.916 -29.32 -22.167999 -13.96 -6.4840002 0.99199998 6.1160002 13.268 19.52 25.771999 31.219999 38.852001 44.360001 48.728001 52.952 61.183998 68.396004 71.683998 78.896004 86.491997 92.744003 99.896004 104.12 113.936 121.568 129.2 136.82001 142.26801 152.084">{Address=&quot;0xMachineAddress-2&quot;, Balance =25})++</tspan><tspan
             id="tspan142"
             y="149"
             x="-157 -149.368 -141.73599 -136.28799 -128.65601 -124.288 -120.064 -112.444 -103.192 -98.139999 -88.888 -79.071999 -73.564003 -66.087997 -62.799999 -55.324001 -49.875999 -38.200001 -30.568001 -23.464001 -17.212 -9.9280005 -6.6399999 0.95599997 5.684 8.9720001 16.256001 23.851999 29.299999 36.931999 44.563999 50.071999 54.439999 58.664001 66.980003 74.132004 81.236 88.472 95.683998 98.972 104.096 108.32 118.136 122.36 129.98 137.45599 145.052 152.528 160.84399 167.996 175.10001 179.32401 189.14 193.364 198.87199 206.34801 213.944 221.42 229.73599 236.888 243.992 249.44 257.07199 262.57999 266.948 271.172 278.64801 283.772 287.06 294.164 302.48001 309.63199 316.73599 320.95999 330.776 335 340.508 347.98401 353.108 356.396 363.5 371.81601 378.96799 386.07199 391.51999 399.15201 404.66 412.28 419.89999 424.26801">1`(3, {DID=&quot;did:m2xsolution:13&quot;, KeyPair = {pubKey = &quot;pubKey-3&quot;, privKey = &quot;privKey-3&quot;}}, </tspan><tspan
             id="tspan144"
             y="163"
             x="-157 -149.38 -141.172 -133.696 -126.22 -121.096 -113.944 -107.692 -101.44 -91.624001 -86.115997 -78.484001 -71.379997 -61.264 -54.051998 -47.799999 -40.203999 -36.916 -29.32 -22.167999 -13.96 -6.4840002 0.99199998 6.1160002 13.268 19.52 25.771999 31.219999 38.852001 44.360001 48.728001 52.952 61.183998 68.396004 71.683998 78.896004 86.491997 92.744003 99.896004 104.12 113.936 121.568 129.2 136.82001">{Address=&quot;0xMachineAddress-3&quot;, Balance =25})</tspan></text>
</g><path
         id="path148"
         style="fill:#e3e3ff;fill-opacity:1;fill-rule:nonzero;stroke:none"
         d="m 1680,2260 h 460 v 120 h -460 z" /><path
         id="path150"
         style="fill:none;stroke:#4d66cc;stroke-width:10;stroke-linecap:butt;stroke-linejoin:miter;stroke-miterlimit:10;stroke-dasharray:none;stroke-opacity:1"
         d="m 1680,2260 h 460 v 120 h -460 z" /><g
         transform="scale(10)"
         id="g152"><text
           id="text156"
           style="font-variant:normal;font-weight:normal;font-size:12px;font-family:Verdana;-inkscape-font-specification:Verdana;writing-mode:lr-tb;fill:#4d66cc;fill-opacity:1;fill-rule:nonzero;stroke:none"
           transform="matrix(1,0,0,-1,170,228)"><tspan
             id="tspan154"
             y="0"
             x="0 5.052 12.648 18.096001 27.540001 35.136002">In/Out</tspan></text>
</g><path
         id="path158"
         style="fill:#ffffff;fill-opacity:1;fill-rule:nonzero;stroke:none"
         d="m 7880,260 c 0,93.887 -192.52,170 -430,170 -237.48,0 -430,-76.113 -430,-170 0,-93.887 192.52,-170 430,-170 237.48,0 430,76.113 430,170" /><path
         id="path160"
         style="fill:none;stroke:#000000;stroke-width:10;stroke-linecap:butt;stroke-linejoin:miter;stroke-miterlimit:10;stroke-dasharray:none;stroke-opacity:1"
         d="m 7880,260 c 0,93.887 -192.52,170 -430,170 -237.48,0 -430,-76.113 -430,-170 0,-93.887 192.52,-170 430,-170 237.48,0 430,76.113 430,170" /><path
         id="path162"
         style="fill:#ffffff;fill-opacity:1;fill-rule:nonzero;stroke:none"
         d="m 7840,260 c 0,71.797 -174.61,130 -390,130 -215.39,0 -390,-58.203 -390,-130 0,-71.797 174.61,-130 390,-130 215.39,0 390,58.203 390,130" /><path
         id="path164"
         style="fill:none;stroke:#000000;stroke-width:10;stroke-linecap:butt;stroke-linejoin:miter;stroke-miterlimit:10;stroke-dasharray:none;stroke-opacity:1"
         d="m 7840,260 c 0,71.797 -174.61,130 -390,130 -215.39,0 -390,-58.203 -390,-130 0,-71.797 174.61,-130 390,-130 215.39,0 390,58.203 390,130" /><g
         transform="scale(10)"
         id="g166"><text
           id="text170"
           style="font-variant:normal;font-weight:normal;font-size:12px;font-family:Verdana;-inkscape-font-specification:Verdana;writing-mode:lr-tb;fill:#000000;fill-opacity:1;fill-rule:nonzero;stroke:none"
           transform="matrix(1,0,0,-1,722.78,22)"><tspan
             id="tspan168"
             y="0"
             x="0 5.052 14.304 21.540001 26.664 33.948002 41.231998">IDProof</tspan></text>
</g><path
         id="path172"
         style="fill:#e3e3ff;fill-opacity:1;fill-rule:nonzero;stroke:none"
         d="m 6970,60 h 280 v 120 h -280 z" /><path
         id="path174"
         style="fill:none;stroke:#4d66cc;stroke-width:10;stroke-linecap:butt;stroke-linejoin:miter;stroke-miterlimit:10;stroke-dasharray:none;stroke-opacity:1"
         d="m 6970,60 h 280 v 120 h -280 z" /><g
         transform="scale(10)"
         id="g176"><text
           id="text180"
           style="font-variant:normal;font-weight:normal;font-size:12px;font-family:Verdana;-inkscape-font-specification:Verdana;writing-mode:lr-tb;fill:#4d66cc;fill-opacity:1;fill-rule:nonzero;stroke:none"
           transform="matrix(1,0,0,-1,699,8)"><tspan
             id="tspan178"
             y="0"
             x="0 9.4440002 17.040001">Out</tspan></text>
</g><g
         transform="scale(10)"
         id="g182"><text
           id="text186"
           style="font-variant:normal;font-weight:normal;font-size:12px;font-family:Verdana;-inkscape-font-specification:Verdana;writing-mode:lr-tb;fill:#000000;fill-opacity:1;fill-rule:nonzero;stroke:none"
           transform="matrix(1,0,0,-1,778,44)"><tspan
             id="tspan184"
             y="0"
             x="0 5.052 14.028 21.42 28.524 33.576 41.051998 48.203999 55.799999 60.528 63.816002 68.543999 75.648003 82.884003 88.008003 95.292 102.576">INTxIdentityProof</tspan></text>
</g><path
         id="path188"
         style="fill:#e3e3ff;fill-opacity:1;fill-rule:nonzero;stroke:none"
         d="m 6970,60 h 280 v 120 h -280 z" /><path
         id="path190"
         style="fill:none;stroke:#4d66cc;stroke-width:10;stroke-linecap:butt;stroke-linejoin:miter;stroke-miterlimit:10;stroke-dasharray:none;stroke-opacity:1"
         d="m 6970,60 h 280 v 120 h -280 z" /><g
         transform="scale(10)"
         id="g192"><text
           id="text196"
           style="font-variant:normal;font-weight:normal;font-size:12px;font-family:Verdana;-inkscape-font-specification:Verdana;writing-mode:lr-tb;fill:#4d66cc;fill-opacity:1;fill-rule:nonzero;stroke:none"
           transform="matrix(1,0,0,-1,699,8)"><tspan
             id="tspan194"
             y="0"
             x="0 9.4440002 17.040001">Out</tspan></text>
</g><path
         id="path198"
         style="fill:#ffffff;fill-opacity:1;fill-rule:nonzero;stroke:none"
         d="m 5190,4460 c 0,121.5 -232.81,220 -520,220 -287.19,0 -520,-98.5 -520,-220 0,-121.5 232.81,-220 520,-220 287.19,0 520,98.5 520,220" /><path
         id="path200"
         style="fill:none;stroke:#000000;stroke-width:10;stroke-linecap:butt;stroke-linejoin:miter;stroke-miterlimit:10;stroke-dasharray:none;stroke-opacity:1"
         d="m 5190,4460 c 0,121.5 -232.81,220 -520,220 -287.19,0 -520,-98.5 -520,-220 0,-121.5 232.81,-220 520,-220 287.19,0 520,98.5 520,220" /><path
         id="path202"
         style="fill:#ffffff;fill-opacity:1;fill-rule:nonzero;stroke:none"
         d="m 5150,4460 c 0,99.41 -214.91,180 -480,180 -265.09,0 -480,-80.59 -480,-180 0,-99.41 214.91,-180 480,-180 265.09,0 480,80.59 480,180" /><path
         id="path204"
         style="fill:none;stroke:#000000;stroke-width:10;stroke-linecap:butt;stroke-linejoin:miter;stroke-miterlimit:10;stroke-dasharray:none;stroke-opacity:1"
         d="m 5150,4460 c 0,99.41 -214.91,180 -480,180 -265.09,0 -480,-80.59 -480,-180 0,-99.41 214.91,-180 480,-180 265.09,0 480,80.59 480,180" /><g
         transform="scale(10)"
         id="g206"><text
           id="text212"
           style="font-variant:normal;font-weight:normal;font-size:12px;font-family:Verdana;-inkscape-font-specification:Verdana;writing-mode:lr-tb;fill:#000000;fill-opacity:1;fill-rule:nonzero;stroke:none"
           transform="matrix(1,0,0,-1,441.91,449)"><tspan
             id="tspan208"
             y="0"
             x="0 8.9759998 16.128 20.856001 30.672001 37.956001 43.080002">Network</tspan><tspan
             id="tspan210"
             y="14"
             x="-6.20508 1.03092 8.2429199 13.36692 20.57892 32.254921 39.406921 44.134918 51.286919">Parameter</tspan></text>
</g><path
         id="path214"
         style="fill:#e3e3ff;fill-opacity:1;fill-rule:nonzero;stroke:none"
         d="m 4440,4400 h 460 v 120 h -460 z" /><path
         id="path216"
         style="fill:none;stroke:#4d66cc;stroke-width:10;stroke-linecap:butt;stroke-linejoin:miter;stroke-miterlimit:10;stroke-dasharray:none;stroke-opacity:1"
         d="m 4440,4400 h 460 v 120 h -460 z" /><g
         transform="scale(10)"
         id="g218"><text
           id="text222"
           style="font-variant:normal;font-weight:normal;font-size:12px;font-family:Verdana;-inkscape-font-specification:Verdana;writing-mode:lr-tb;fill:#4d66cc;fill-opacity:1;fill-rule:nonzero;stroke:none"
           transform="matrix(1,0,0,-1,446,442)"><tspan
             id="tspan220"
             y="0"
             x="0 5.052 12.648 18.096001 27.540001 35.136002">In/Out</tspan></text>
</g><g
         transform="scale(10)"
         id="g224"><text
           id="text228"
           style="font-variant:normal;font-weight:normal;font-size:12px;font-family:Verdana;-inkscape-font-specification:Verdana;writing-mode:lr-tb;fill:#000000;fill-opacity:1;fill-rule:nonzero;stroke:none"
           transform="matrix(1,0,0,-1,368,467)"><tspan
             id="tspan226"
             y="0"
             x="0 8.9759998 16.128 20.856001 30.672001 37.956001 43.080002 50.183998 57.419998 64.632004 69.755997 76.968002 88.643997 95.795998 100.524 107.676 138.03049 141.31848 148.91447 152.20248 156.93048 165.90648">NetworkParameterinitNP</tspan></text>
</g><path
         id="path230"
         style="fill:#e3e3ff;fill-opacity:1;fill-rule:nonzero;stroke:none"
         d="m 4440,4400 h 460 v 120 h -460 z" /><path
         id="path232"
         style="fill:none;stroke:#4d66cc;stroke-width:10;stroke-linecap:butt;stroke-linejoin:miter;stroke-miterlimit:10;stroke-dasharray:none;stroke-opacity:1"
         d="m 4440,4400 h 460 v 120 h -460 z" /><g
         transform="scale(10)"
         id="g234"><text
           id="text238"
           style="font-variant:normal;font-weight:normal;font-size:12px;font-family:Verdana;-inkscape-font-specification:Verdana;writing-mode:lr-tb;fill:#4d66cc;fill-opacity:1;fill-rule:nonzero;stroke:none"
           transform="matrix(1,0,0,-1,446,442)"><tspan
             id="tspan236"
             y="0"
             x="0 5.052 12.648 18.096001 27.540001 35.136002">In/Out</tspan></text>
</g><path
         id="path240"
         style="fill:#ffffff;fill-opacity:1;fill-rule:nonzero;stroke:none"
         d="m 1930,4040 c 0,121.5 -232.81,220 -520,220 -287.19,0 -520,-98.5 -520,-220 0,-121.5 232.81,-220 520,-220 287.19,0 520,98.5 520,220" /><path
         id="path242"
         style="fill:none;stroke:#000000;stroke-width:10;stroke-linecap:butt;stroke-linejoin:miter;stroke-miterlimit:10;stroke-dasharray:none;stroke-opacity:1"
         d="m 1930,4040 c 0,121.5 -232.81,220 -520,220 -287.19,0 -520,-98.5 -520,-220 0,-121.5 232.81,-220 520,-220 287.19,0 520,98.5 520,220" /><path
         id="path244"
         style="fill:#ffffff;fill-opacity:1;fill-rule:nonzero;stroke:none"
         d="m 1890,4040 c 0,99.41 -214.91,180 -480,180 -265.09,0 -480,-80.59 -480,-180 0,-99.41 214.91,-180 480,-180 265.09,0 480,80.59 480,180" /><path
         id="path246"
         style="fill:none;stroke:#000000;stroke-width:10;stroke-linecap:butt;stroke-linejoin:miter;stroke-miterlimit:10;stroke-dasharray:none;stroke-opacity:1"
         d="m 1890,4040 c 0,99.41 -214.91,180 -480,180 -265.09,0 -480,-80.59 -480,-180 0,-99.41 214.91,-180 480,-180 265.09,0 480,80.59 480,180" /><g
         transform="scale(10)"
         id="g248"><text
           id="text252"
           style="font-variant:normal;font-weight:normal;font-size:12px;font-family:Verdana;-inkscape-font-specification:Verdana;writing-mode:lr-tb;fill:#000000;fill-opacity:1;fill-rule:nonzero;stroke:none"
           transform="matrix(1,0,0,-1,111.324,400)"><tspan
             id="tspan250"
             y="0"
             x="0 10.116 17.4 24.875999 28.164 31.452 38.604 46.944 54.096001">MobileRes</tspan></text>
</g><path
         id="path254"
         style="fill:#e3e3ff;fill-opacity:1;fill-rule:nonzero;stroke:none"
         d="m 870,3860 h 460 v 120 H 870 Z" /><path
         id="path256"
         style="fill:none;stroke:#4d66cc;stroke-width:10;stroke-linecap:butt;stroke-linejoin:miter;stroke-miterlimit:10;stroke-dasharray:none;stroke-opacity:1"
         d="m 870,3860 h 460 v 120 H 870 Z" /><g
         transform="scale(10)"
         id="g258"><text
           id="text262"
           style="font-variant:normal;font-weight:normal;font-size:12px;font-family:Verdana;-inkscape-font-specification:Verdana;writing-mode:lr-tb;fill:#4d66cc;fill-opacity:1;fill-rule:nonzero;stroke:none"
           transform="matrix(1,0,0,-1,89,388)"><tspan
             id="tspan260"
             y="0"
             x="0 5.052 12.648 18.096001 27.540001 35.136002">In/Out</tspan></text>
</g><g
         transform="scale(10)"
         id="g264"><text
           id="text270"
           style="font-variant:normal;font-weight:normal;font-size:12px;font-family:Verdana;-inkscape-font-specification:Verdana;writing-mode:lr-tb;fill:#000000;fill-opacity:1;fill-rule:nonzero;stroke:none"
           transform="matrix(1,0,0,-1,90,427)"><tspan
             id="tspan266"
             y="0"
             x="0 5.052 14.028 21.42 28.524 38.639999 46.98 54.563999">INTxMRES</tspan><tspan
             id="tspan268"
             y="60"
             x="32 39.152 50.827999 58.304001 63.032001">empty</tspan></text>
</g><path
         id="path272"
         style="fill:#e3e3ff;fill-opacity:1;fill-rule:nonzero;stroke:none"
         d="m 870,3860 h 460 v 120 H 870 Z" /><path
         id="path274"
         style="fill:none;stroke:#4d66cc;stroke-width:10;stroke-linecap:butt;stroke-linejoin:miter;stroke-miterlimit:10;stroke-dasharray:none;stroke-opacity:1"
         d="m 870,3860 h 460 v 120 H 870 Z" /><g
         transform="scale(10)"
         id="g276"><text
           id="text280"
           style="font-variant:normal;font-weight:normal;font-size:12px;font-family:Verdana;-inkscape-font-specification:Verdana;writing-mode:lr-tb;fill:#4d66cc;fill-opacity:1;fill-rule:nonzero;stroke:none"
           transform="matrix(1,0,0,-1,89,388)"><tspan
             id="tspan278"
             y="0"
             x="0 5.052 12.648 18.096001 27.540001 35.136002">In/Out</tspan></text>
</g><path
         id="path282"
         style="fill:#ffffff;fill-opacity:1;fill-rule:nonzero;stroke:none"
         d="m 6490,2640 h 1600 v 620 H 6490 Z" /><path
         id="path284"
         style="fill:none;stroke:#000000;stroke-width:10;stroke-linecap:butt;stroke-linejoin:miter;stroke-miterlimit:10;stroke-dasharray:none;stroke-opacity:1"
         d="m 6490,2640 h 1600 v 620 H 6490 Z" /><g
         transform="scale(10)"
         id="g286"><text
           id="text302"
           style="font-variant:normal;font-weight:normal;font-size:12px;font-family:Verdana;-inkscape-font-specification:Verdana;writing-mode:lr-tb;fill:#000000;fill-opacity:1;fill-rule:nonzero;stroke:none"
           transform="matrix(1,0,0,-1,692.807,298)"><tspan
             id="tspan288"
             y="0"
             x="0 8.3760004 13.5 20.784 27.035999 33.287998 38.736 44.987999 52.584 59.796001 64.919998">Cross-shard</tspan><tspan
             id="tspan290"
             y="14"
             x="-32.5867 -25.1947 -20.0707 -12.8587 -5.2627001 0.98930001 8.2012997 14.4533 19.181299 22.469299 29.7533 37.3493 45.557301 52.709301 57.833302 61.1213 65.345299 68.633301 74.8853 82.097298 86.825302 90.113297 97.397301">TransactionVerification</tspan><tspan
             id="tspan292"
             y="-21"
             x="120.1933 125.6413 131.08929 140.9053 148.3813 155.59331 160.3213 165.0493 169.2733 174.39729 181.5493 187.8013 193.2493 197.4733 207.28931 217.1053 221.3293 229.70531 239.14931 247.3573 254.7493 262.38129 269.61731 277.95731 287.40131 296.84531 303.7453 311.37729 319.60931 327.81729 335.20929 342.60129 346.82529 354.03729 361.6333 369.10931 376.32129 379.60931 385.8613 393.14529">[(#batt res) &gt;= COST_PROOF_BATT andalso </tspan><tspan
             id="tspan294"
             y="-7"
             x="120.1933 125.6413 135.45731 141.7093 149.1853 156.7813 161.00529 166.1293 173.2813 179.53329 184.98129 189.20531 199.0213 208.8373 213.06129 221.4373 230.8813 239.08929 246.48129 254.1133 261.3493 269.6893 279.1333 288.5773 295.47729 303.10931 311.48529 318.72131 327.50531 331.72931 338.94131 346.53729 354.01331 361.22531 364.51331 370.76529 378.04929">(#cpu res) &gt;= COST_PROOF_CPU andalso </tspan><tspan
             id="tspan296"
             y="7"
             x="120.1933 125.6413 135.45731 143.0533 150.20531 154.9333 159.1573 164.2813 171.4333 177.6853 183.1333 187.3573 197.17329 206.9893 211.2133 220.1893 227.7733 235.1653 242.7973 252.2413 259.1413 266.04129 270.26529 277.47729 285.0733 292.54929 299.76129 303.04929 309.3013">(#net res) &lt;&gt; NET_OFF andalso</tspan><tspan
             id="tspan298"
             y="21"
             x="120.1933 130.00929 138.2173 145.6933 153.1693 158.2933 165.4453 171.6973 177.9493 182.17329 193.8493 201.06129 207.31329 214.9093 218.1973 225.7933 232.9453 244.81329 252.0253 255.31329 258.60129 265.7533 270.48129 274.70529 284.5213 288.7453 298.56131 302.78531 307.9093 315.1933 326.86929 331.09329 336.54129 344.1373 351.61331 357.06131 366.87729 371.60529 378.70929 385.39331 388.6813 394.93329 399.66129 403.88531 411.3613 414.64929 421.7533 427.20129 432.64929 436.87329 444.0853 451.6813 459.15729 466.36929 469.65729 475.9093">#Address machineWallet = #from (hd(#txList blk)) andalso</tspan><tspan
             id="tspan300"
             y="35"
             x="120.1933 130.00929 137.48531 142.6093 145.89729 153.0013 161.31731 168.4693 175.5733 179.7973 185.2453 195.06129 203.3773 210.5293 217.6333 224.86929 232.0813 235.36929 240.4933 244.7173 256.39331 263.60529 269.8573 277.45331 280.7413 288.33731 295.48929 300.54129 309.7933 315.2413 319.4653 329.28131 333.50531 343.32129 348.04929 355.15329 363.3613 366.64929 374.12531 378.3493 383.7973 391.39331 398.86929 404.31729 414.1333 418.8613 425.9653 432.64929 435.93729 442.1893 446.9173 451.1413 458.61731 461.9053 469.00931 474.45731 479.9053">#privKey (#KeyPair machineID) = #txSig (hd(#txList blk))]</tspan></text>
</g><path
         id="path304"
         style="fill:none;stroke:#000000;stroke-width:10;stroke-linecap:butt;stroke-linejoin:miter;stroke-miterlimit:10;stroke-dasharray:none;stroke-opacity:1"
         d="M 7068.38,3260 5727.5,5135.64" /><path
         id="path306"
         style="fill:#000000;fill-opacity:1;fill-rule:nonzero;stroke:none"
         d="m 5860.05,5053.39 -132.55,82.25 34.94,-152.04 20.89,73.94" /><g
         transform="scale(10)"
         id="g308"><text
           id="text312"
           style="font-variant:normal;font-weight:normal;font-size:12px;font-family:Verdana;-inkscape-font-specification:Verdana;writing-mode:lr-tb;fill:#000000;fill-opacity:1;fill-rule:nonzero;stroke:none"
           transform="matrix(1,0,0,-1,635,437)"><tspan
             id="tspan310"
             y="0"
             x="0 5.448 10.5 19.752001 24.120001 28.344 35.82 39.108002 46.212002">(ID, blk)</tspan></text>
</g><path
         id="path314"
         style="fill:none;stroke:#000000;stroke-width:10;stroke-linecap:butt;stroke-linejoin:miter;stroke-miterlimit:10;stroke-dasharray:none;stroke-opacity:1"
         d="M 6490,2780 H 4390 v 0 0 h -37.5 -37.5 -37.5 -37.5 -37.5 -37.5 -37.5 -37.5 v 0 H 2618.78" /><path
         id="path316"
         style="fill:#000000;fill-opacity:1;fill-rule:nonzero;stroke:none"
         d="m 2762.78,2840 -144,-60 144,-60 -48,60" /><g
         transform="scale(10)"
         id="g318"><text
           id="text322"
           style="font-variant:normal;font-weight:normal;font-size:12px;font-family:Verdana;-inkscape-font-specification:Verdana;writing-mode:lr-tb;fill:#000000;fill-opacity:1;fill-rule:nonzero;stroke:none"
           transform="matrix(1,0,0,-1,337,285)"><tspan
             id="tspan320"
             y="0"
             x="0 5.448 17.124001 22.176001 31.427999 35.796001 40.02 51.695999 58.908001 65.160004 72.755997 76.043999 83.639999 90.792 95.844002 105.096 109.464 113.688 125.364 132.576 138.828 146.424 149.71201 157.308 164.46001 176.328 183.53999 186.828 190.116 197.26801 201.996">(mID, machineID, machineWallet)</tspan></text>
</g><path
         id="path324"
         style="fill:none;stroke:#000000;stroke-width:10;stroke-linecap:butt;stroke-linejoin:miter;stroke-miterlimit:10;stroke-dasharray:none;stroke-opacity:1"
         d="m 6546,2640 -48,-20 v 0 0 l -12.06,-4.69 -12.19,-4.06 -12.31,-3.44 -12.44,-2.81 -12.56,-2.19 -12.69,-1.56 -12.81,-0.94 L 6398,2600 v 0 H 2680" /><path
         id="path326"
         style="fill:#000000;fill-opacity:1;fill-rule:nonzero;stroke:none"
         d="M 6436.15,2529.23 6546,2640 h -156 l 67.39,-36.92" /><g
         transform="scale(10)"
         id="g328"><text
           id="text332"
           style="font-variant:normal;font-weight:normal;font-size:12px;font-family:Verdana;-inkscape-font-specification:Verdana;writing-mode:lr-tb;fill:#000000;fill-opacity:1;fill-rule:nonzero;stroke:none"
           transform="matrix(1,0,0,-1,399,245)"><tspan
             id="tspan330"
             y="0"
             x="0 5.448 17.124001 22.176001 31.427999 35.796001 40.02 51.695999 58.908001 65.160004 72.755997 76.043999 83.639999 90.792 95.844002 105.096 109.464 113.688 125.364 132.576 138.828 146.424 149.71201 157.308 164.46001 176.328 183.53999 186.828 190.116 197.26801 201.996">(mID, machineID, machineWallet)</tspan></text>
</g><path
         id="path334"
         style="fill:none;stroke:#000000;stroke-width:10;stroke-linecap:butt;stroke-linejoin:miter;stroke-miterlimit:10;stroke-dasharray:none;stroke-opacity:1"
         d="M 7450,2640 V 430" /><path
         id="path336"
         style="fill:#000000;fill-opacity:1;fill-rule:nonzero;stroke:none"
         d="m 7390,574 60,-144 60,144 -60,-48" /><g
         transform="scale(10)"
         id="g338"><text
           id="text356"
           style="font-variant:normal;font-weight:normal;font-size:12px;font-family:Verdana;-inkscape-font-specification:Verdana;writing-mode:lr-tb;fill:#000000;fill-opacity:1;fill-rule:nonzero;stroke:none"
           transform="matrix(1,0,0,-1,749,210)"><tspan
             id="tspan340"
             y="0"
             x="0 5.448 10.5 19.752001 24.120001 28.344 35.964001 44.195999 47.484001 54.768002 61.02 68.124001 73.176003 82.428001 86.652 96.468002 100.692 110.508 115.56 124.812 129.036 136.51199 139.8 146.90401">(ID, {BlockID = #ID blk,</tspan><tspan
             id="tspan342"
             y="14"
             x="0 8.2320004 11.52 18.804001 25.056 32.16 41.172001 48.383999 54.636002 62.231998 66.456001 76.272003 80.496002 85.547997 93.143997 97.872002 102.24 106.968 114.252 122.46 127.188 132.312 135.60001 143.196 150.672 156.12 163.716 170.92799 177.17999 184.776 193.008 196.29601 203.58 209.832 216.936 222.384 229.86 233.14799 240.252 245.7 251.14799">BlockHash = Int.toString(hashBlock(blk)),</tspan><tspan
             id="tspan344"
             y="28"
             x="0 8.2320004 11.52 18.804001 25.056 32.16 38.411999 46.007999 53.220001 56.507999 64.103996 73.356003 76.643997 80.867996 85.092003 92.484001 99.695999 104.82 112.296 119.448 124.176 128.39999 138.216 142.44 152.256 160.48801 163.776 171.06 177.312 184.416 190.668 198.26401 205.476 208.76401 216.36 225.612 228.89999 233.12399 237.34801 244.74001 251.952 257.07599 264.552 271.70401 276.43201 280.65601 288.13199 291.42001 298.52399">BlockchainDiffTarget = #BlockchainDiffTarget blk,</tspan><tspan
             id="tspan346"
             y="42"
             x="0 7.3920002 15.612 20.664 29.916 34.139999 43.956001 48.18 57.995998 63.048 72.300003 76.524002 81.972 89.568001 97.043999 102.492 107.94 117.756 122.484 129.588 136.272 139.56 145.812 150.53999 154.76401 162.24001 165.528 172.632 178.08 183.528 188.976">TXID = #ID (hd((#txList blk))),</tspan><tspan
             id="tspan348"
             y="56"
             x="0 8.2320004 11.52 18.804001 25.056 32.16 39.551998 47.771999 54.456001 57.743999 63.995998 68.723999 72.947998 82.764 86.987999 96.804001 101.532 108.636 115.32 118.608 124.86 129.588 133.812 141.28799 144.576 151.67999">BlockTXList = #txList blk,</tspan><tspan
             id="tspan350"
             y="70"
             x="0 7.4759998 12.6 19.884001 27.167999 31.392 36.444 45.695999 49.919998 59.736 63.959999 69.012001 76.608002 81.335999 85.704002 90.431999 97.716003 105.924 110.652 115.776 119.064 126.66 134.136 139.584 147.17999 154.392 160.644 168.24001 173.688 178.74001 186.336 191.064 195.43201 200.16 207.444 215.65199 220.38 225.504 228.79201 236.388 243.864 249.312 256.90799 264.12 270.37201 277.96799 286.20001 289.48801 296.772 303.02399 310.12799 315.57599 323.052 326.34 333.444 338.892 344.34">proofID = Int.toString(hash(Int.toString(hashBlock(blk))^</tspan><tspan
             id="tspan352"
             y="84"
             x="0 5.052 12.648 17.375999 21.743999 26.472 33.756001 41.964001 46.692001 51.816002 55.104 62.700001 70.176003 75.624001 85.440002 90.491997 99.744003 103.968 109.416 117.012 124.488 129.936 135.384 145.2 149.92799 157.032 163.716 167.004 173.256 177.98399 182.20799 189.68401 192.972 200.076 205.524 210.972 216.42 221.868 227.31599 232.76401">Int.toString(#ID (hd((#txList blk)))))),</tspan><tspan
             id="tspan354"
             y="98"
             x="0 7.4759998 12.6 19.884001 27.167999 31.392 39.599998 42.888 50.363998 54.588001 64.403999 68.627998 78.444 85.919998 91.043999 94.332001 101.436 109.752 116.904 124.008 128.23199 133.67999 143.496 151.812 158.964 166.06799 173.304 180.51601 183.804 188.92799 193.15199 204.828 212.03999 218.29201 225.888 229.17599 236.772 243.924 248.976 258.228 263.67599 271.29599">proofSig = #privKey (#KeyPair machineID)})</tspan></text>
</g><path
         id="path358"
         style="fill:none;stroke:#000000;stroke-width:10;stroke-linecap:butt;stroke-linejoin:miter;stroke-miterlimit:10;stroke-dasharray:none;stroke-opacity:1"
         d="M 7870,3260 V 5100" /><path
         id="path360"
         style="fill:#000000;fill-opacity:1;fill-rule:nonzero;stroke:none"
         d="m 7810,3404 60,-144 60,144 -60,-48" /><g
         transform="scale(10)"
         id="g362"><text
           id="text366"
           style="font-variant:normal;font-weight:normal;font-size:12px;font-family:Verdana;-inkscape-font-specification:Verdana;writing-mode:lr-tb;fill:#000000;fill-opacity:1;fill-rule:nonzero;stroke:none"
           transform="matrix(1,0,0,-1,762,436)"><tspan
             id="tspan364"
             y="0"
             x="0 5.448 10.5 19.752001 24.120001 28.344 35.82 39.108002 46.212002">(ID, blk)</tspan></text>
</g><path
         id="path368"
         style="fill:none;stroke:#000000;stroke-width:10;stroke-linecap:butt;stroke-linejoin:miter;stroke-miterlimit:10;stroke-dasharray:none;stroke-opacity:1"
         d="M 6892.3,3260 5061.45,4315.18" /><path
         id="path370"
         style="fill:#000000;fill-opacity:1;fill-rule:nonzero;stroke:none"
         d="m 6737.58,3279.92 154.72,-19.92 -94.8,123.89 11.63,-75.95" /><g
         transform="scale(10)"
         id="g372"><text
           id="text376"
           style="font-variant:normal;font-weight:normal;font-size:12px;font-family:Verdana;-inkscape-font-specification:Verdana;writing-mode:lr-tb;fill:#000000;fill-opacity:1;fill-rule:nonzero;stroke:none"
           transform="matrix(1,0,0,-1,659,352)"><tspan
             id="tspan374"
             y="0"
             x="0 8.9759998">NP</tspan></text>
</g><path
         id="path378"
         style="fill:none;stroke:#000000;stroke-width:10;stroke-linecap:butt;stroke-linejoin:miter;stroke-miterlimit:10;stroke-dasharray:none;stroke-opacity:1"
         d="M 6611.93,3260 4879.26,4258.6" /><path
         id="path380"
         style="fill:#000000;fill-opacity:1;fill-rule:nonzero;stroke:none"
         d="m 5033.98,4238.68 -154.72,19.92 94.81,-123.89 -11.63,75.95" /><g
         transform="scale(10)"
         id="g382"><text
           id="text386"
           style="font-variant:normal;font-weight:normal;font-size:12px;font-family:Verdana;-inkscape-font-specification:Verdana;writing-mode:lr-tb;fill:#000000;fill-opacity:1;fill-rule:nonzero;stroke:none"
           transform="matrix(1,0,0,-1,589,342)"><tspan
             id="tspan384"
             y="0"
             x="0 8.9759998">NP</tspan></text>
</g><path
         id="path388"
         style="fill:none;stroke:#000000;stroke-width:10;stroke-linecap:butt;stroke-linejoin:miter;stroke-miterlimit:10;stroke-dasharray:none;stroke-opacity:1"
         d="M 6490,3169.49 1926.74,4015.4" /><path
         id="path390"
         style="fill:#000000;fill-opacity:1;fill-rule:nonzero;stroke:none"
         d="m 6337.48,3136.74 152.52,32.75 -130.65,85.24 36.26,-67.74" /><g
         transform="scale(10)"
         id="g392"><text
           id="text396"
           style="font-variant:normal;font-weight:normal;font-size:12px;font-family:Verdana;-inkscape-font-specification:Verdana;writing-mode:lr-tb;fill:#000000;fill-opacity:1;fill-rule:nonzero;stroke:none"
           transform="matrix(1,0,0,-1,335,382)"><tspan
             id="tspan394"
             y="0"
             x="0 5.448 17.124001 22.176001 31.427999 35.796001 40.919998 48.071999 54.324001">(mID,res)</tspan></text>
</g><path
         id="path398"
         style="fill:none;stroke:#000000;stroke-width:10;stroke-linecap:butt;stroke-linejoin:miter;stroke-miterlimit:10;stroke-dasharray:none;stroke-opacity:1"
         d="M 6490,3027.11 1803.03,3895.95" /><path
         id="path400"
         style="fill:#000000;fill-opacity:1;fill-rule:nonzero;stroke:none"
         d="m 1955.55,3928.7 -152.52,-32.75 130.65,-85.24 -36.26,67.74" /><g
         transform="scale(10)"
         id="g402"><text
           id="text406"
           style="font-variant:normal;font-weight:normal;font-size:12px;font-family:Verdana;-inkscape-font-specification:Verdana;writing-mode:lr-tb;fill:#000000;fill-opacity:1;fill-rule:nonzero;stroke:none"
           transform="matrix(1,0,0,-1,281,335)"><tspan
             id="tspan404"
             y="0"
             x="0 5.448 17.124001 22.176001 31.427999 35.796001 43.271999 50.424 56.675999 65.015999 72.167999 78.419998 83.867996 88.991997 96.143997 102.396 106.764 115.14 124.584 132.79201 140.18401 147.81599 155.052 163.392 172.836 182.28 189.17999 196.812 205.04401 213.252 220.644 228.036 232.40401 240.78 250.224 258.43201 265.82401 273.45599 280.69199 289.03201 298.47601 307.92001 314.82001 322.452 330.828 338.064 346.84799 352.29599">(mID,decRes(res,COST_PROOF_BATT,COST_PROOF_CPU))</tspan></text>
</g></g></g></svg>