<?xml version="1.0" encoding="UTF-8" standalone="no"?>
<svg
   xmlns:dc="http://purl.org/dc/elements/1.1/"
   xmlns:cc="http://creativecommons.org/ns#"
   xmlns:rdf="http://www.w3.org/1999/02/22-rdf-syntax-ns#"
   xmlns:svg="http://www.w3.org/2000/svg"
   xmlns="http://www.w3.org/2000/svg"
   viewBox="0 0 1566.6667 742.66669"
   height="742.66669"
   width="1566.6667"
   xml:space="preserve"
   id="svg2"
   version="1.1"><metadata
     id="metadata8"><rdf:RDF><cc:Work
         rdf:about=""><dc:format>image/svg+xml</dc:format><dc:type
           rdf:resource="http://purl.org/dc/dcmitype/StillImage" /></cc:Work></rdf:RDF></metadata><defs
     id="defs6" /><g
     transform="matrix(1.3333333,0,0,-1.3333333,0,742.66667)"
     id="g10"><g
       transform="scale(0.1)"
       id="g12"><path
         id="path14"
         style="fill:#ffffff;fill-opacity:1;fill-rule:nonzero;stroke:none"
         d="m 820,3500 c 0,110.45 -134.316,200 -300,200 -165.684,0 -300,-89.55 -300,-200 0,-110.45 134.316,-200 300,-200 165.684,0 300,89.55 300,200" /><path
         id="path16"
         style="fill:none;stroke:#000000;stroke-width:10;stroke-linecap:butt;stroke-linejoin:miter;stroke-miterlimit:10;stroke-dasharray:none;stroke-opacity:1"
         d="m 820,3500 c 0,110.45 -134.316,200 -300,200 -165.684,0 -300,-89.55 -300,-200 0,-110.45 134.316,-200 300,-200 165.684,0 300,89.55 300,200" /><path
         id="path18"
         style="fill:#ffffff;fill-opacity:1;fill-rule:nonzero;stroke:none"
         d="m 780,3500 c 0,88.36 -116.406,160 -260,160 -143.594,0 -260,-71.64 -260,-160 0,-88.36 116.406,-160 260,-160 143.594,0 260,71.64 260,160" /><path
         id="path20"
         style="fill:none;stroke:#000000;stroke-width:10;stroke-linecap:butt;stroke-linejoin:miter;stroke-miterlimit:10;stroke-dasharray:none;stroke-opacity:1"
         d="m 780,3500 c 0,88.36 -116.406,160 -260,160 -143.594,0 -260,-71.64 -260,-160 0,-88.36 116.406,-160 260,-160 143.594,0 260,71.64 260,160" /><g
         transform="scale(10)"
         id="g22"><text
           id="text26"
           style="font-variant:normal;font-weight:normal;font-size:12px;font-family:Verdana;-inkscape-font-specification:Verdana;writing-mode:lr-tb;fill:#000000;fill-opacity:1;fill-rule:nonzero;stroke:none"
           transform="matrix(1,0,0,-1,34.6992,346)"><tspan
             id="tspan24"
             y="0"
             x="0 8.2080002 15.804 23.016001 28.139999">Shard</tspan></text>
</g><path
         id="path28"
         style="fill:#e3e3ff;fill-opacity:1;fill-rule:nonzero;stroke:none"
         d="m 50,3270 h 460 v 120 H 50 Z" /><path
         id="path30"
         style="fill:none;stroke:#4d66cc;stroke-width:10;stroke-linecap:butt;stroke-linejoin:miter;stroke-miterlimit:10;stroke-dasharray:none;stroke-opacity:1"
         d="m 50,3270 h 460 v 120 H 50 Z" /><g
         transform="scale(10)"
         id="g32"><text
           id="text36"
           style="font-variant:normal;font-weight:normal;font-size:12px;font-family:Verdana;-inkscape-font-specification:Verdana;writing-mode:lr-tb;fill:#4d66cc;fill-opacity:1;fill-rule:nonzero;stroke:none"
           transform="matrix(1,0,0,-1,7,329)"><tspan
             id="tspan34"
             y="0"
             x="0 5.052 12.648 18.096001 27.540001 35.136002">In/Out</tspan></text>
</g><g
         transform="scale(10)"
         id="g38"><text
           id="text42"
           style="font-variant:normal;font-weight:normal;font-size:12px;font-family:Verdana;-inkscape-font-specification:Verdana;writing-mode:lr-tb;fill:#000000;fill-opacity:1;fill-rule:nonzero;stroke:none"
           transform="matrix(1,0,0,-1,77,369)"><tspan
             id="tspan40"
             y="0"
             x="0">1</tspan></text>
</g><path
         id="path44"
         style="fill:#e3e3ff;fill-opacity:1;fill-rule:nonzero;stroke:none"
         d="m 50,3270 h 460 v 120 H 50 Z" /><path
         id="path46"
         style="fill:none;stroke:#4d66cc;stroke-width:10;stroke-linecap:butt;stroke-linejoin:miter;stroke-miterlimit:10;stroke-dasharray:none;stroke-opacity:1"
         d="m 50,3270 h 460 v 120 H 50 Z" /><g
         transform="scale(10)"
         id="g48"><text
           id="text52"
           style="font-variant:normal;font-weight:normal;font-size:12px;font-family:Verdana;-inkscape-font-specification:Verdana;writing-mode:lr-tb;fill:#4d66cc;fill-opacity:1;fill-rule:nonzero;stroke:none"
           transform="matrix(1,0,0,-1,7,329)"><tspan
             id="tspan50"
             y="0"
             x="0 5.052 12.648 18.096001 27.540001 35.136002">In/Out</tspan></text>
</g><path
         id="path54"
         style="fill:#ffffff;fill-opacity:1;fill-rule:nonzero;stroke:none"
         d="m 2210,1260 c 0,193.3 -192.52,350 -430,350 -237.48,0 -430,-156.7 -430,-350 0,-193.3 192.52,-350 430,-350 237.48,0 430,156.7 430,350" /><path
         id="path56"
         style="fill:none;stroke:#000000;stroke-width:10;stroke-linecap:butt;stroke-linejoin:miter;stroke-miterlimit:10;stroke-dasharray:none;stroke-opacity:1"
         d="m 2210,1260 c 0,193.3 -192.52,350 -430,350 -237.48,0 -430,-156.7 -430,-350 0,-193.3 192.52,-350 430,-350 237.48,0 430,156.7 430,350" /><path
         id="path58"
         style="fill:#ffffff;fill-opacity:1;fill-rule:nonzero;stroke:none"
         d="m 2170,1260 c 0,171.21 -174.61,310 -390,310 -215.39,0 -390,-138.79 -390,-310 0,-171.21 174.61,-310 390,-310 215.39,0 390,138.79 390,310" /><path
         id="path60"
         style="fill:none;stroke:#000000;stroke-width:10;stroke-linecap:butt;stroke-linejoin:miter;stroke-miterlimit:10;stroke-dasharray:none;stroke-opacity:1"
         d="m 2170,1260 c 0,171.21 -174.61,310 -390,310 -215.39,0 -390,-138.79 -390,-310 0,-171.21 174.61,-310 390,-310 215.39,0 390,138.79 390,310" /><g
         transform="scale(10)"
         id="g62"><text
           id="text66"
           style="font-variant:normal;font-weight:normal;font-size:12px;font-family:Verdana;-inkscape-font-specification:Verdana;writing-mode:lr-tb;fill:#000000;fill-opacity:1;fill-rule:nonzero;stroke:none"
           transform="matrix(1,0,0,-1,153.9,122)"><tspan
             id="tspan64"
             y="0"
             x="0 10.116 17.327999 23.58 31.176001 34.464001 42.060001">Machine</tspan></text>
</g><path
         id="path68"
         style="fill:#e3e3ff;fill-opacity:1;fill-rule:nonzero;stroke:none"
         d="m 1220,920 h 460 v 120 h -460 z" /><path
         id="path70"
         style="fill:none;stroke:#4d66cc;stroke-width:10;stroke-linecap:butt;stroke-linejoin:miter;stroke-miterlimit:10;stroke-dasharray:none;stroke-opacity:1"
         d="m 1220,920 h 460 v 120 h -460 z" /><g
         transform="scale(10)"
         id="g72"><text
           id="text76"
           style="font-variant:normal;font-weight:normal;font-size:12px;font-family:Verdana;-inkscape-font-specification:Verdana;writing-mode:lr-tb;fill:#4d66cc;fill-opacity:1;fill-rule:nonzero;stroke:none"
           transform="matrix(1,0,0,-1,124,94)"><tspan
             id="tspan74"
             y="0"
             x="0 5.052 12.648 18.096001 27.540001 35.136002">In/Out</tspan></text>
</g><g
         transform="scale(10)"
         id="g78"><text
           id="text94"
           style="font-variant:normal;font-weight:normal;font-size:12px;font-family:Verdana;-inkscape-font-specification:Verdana;writing-mode:lr-tb;fill:#000000;fill-opacity:1;fill-rule:nonzero;stroke:none"
           transform="matrix(1,0,0,-1,212,145)"><tspan
             id="tspan80"
             y="0"
             x="0 5.052 14.028 21.42 28.524 38.639999 45.852001 52.104 59.700001 62.987999 70.584 77.736 82.788002 90.264 97.416 105.012 109.74 113.028 117.756 124.86 131.964 143.832 151.04401 154.332 157.62 164.772">INTxMachineIdentityxWallet</tspan><tspan
             id="tspan82"
             y="67"
             x="-198 -190.368 -182.73599 -177.28799 -169.65601 -165.28799 -161.064 -153.444 -144.192 -139.14 -129.888 -120.072 -114.564 -107.088 -103.8 -96.323997 -90.875999 -79.199997 -71.568001 -64.463997 -58.212002 -50.928001 -47.639999 -40.043999 -35.316002 -32.028 -24.743999 -17.148001 -11.7 -4.0679998 3.5639999 9.0719995 13.44 17.664 25.98 33.132 40.236 47.472 54.683998 57.972 63.096001 67.32 77.136002 81.360001 88.980003 96.456001 104.052 111.528 119.844 126.996 134.10001 138.32401 148.14 152.364 157.87199 165.34801 172.944 180.42 188.73599 195.888 202.992 208.44 216.07201 221.58 225.948 230.172 237.64799 242.772 246.06 253.164 261.48001 268.63199 275.73599 279.95999 289.776 294 299.508 306.98401 312.108 315.396 322.5 330.81601 337.96799 345.07199 350.51999 358.15201 363.66 371.28 378.89999 383.26801">1`(1, {DID=&quot;did:m2xsolution:11&quot;, KeyPair = {pubKey = &quot;pubKey-1&quot;, privKey = &quot;privKey-1&quot;}}, </tspan><tspan
             id="tspan84"
             y="81"
             x="-198 -190.38 -182.172 -174.696 -167.22 -162.09599 -154.944 -148.692 -142.44 -132.62399 -127.116 -119.484 -112.38 -102.264 -95.052002 -88.800003 -81.204002 -77.916 -70.32 -63.167999 -54.959999 -47.484001 -40.007999 -34.883999 -27.732 -21.48 -15.228 -9.7799997 -2.148 3.3599999 7.7280002 11.952 20.184 27.396 30.684 37.896 45.492001 51.743999 58.896 63.119999 72.935997 80.568001 88.199997 95.82 101.268 111.084">{Address=&quot;0xMachineAddress-1&quot;, Balance =25})++</tspan><tspan
             id="tspan86"
             y="95"
             x="-198 -190.368 -182.73599 -177.28799 -169.65601 -165.28799 -161.064 -153.444 -144.192 -139.14 -129.888 -120.072 -114.564 -107.088 -103.8 -96.323997 -90.875999 -79.199997 -71.568001 -64.463997 -58.212002 -50.928001 -47.639999 -40.043999 -35.316002 -32.028 -24.743999 -17.148001 -11.7 -4.0679998 3.5639999 9.0719995 13.44 17.664 25.98 33.132 40.236 47.472 54.683998 57.972 63.096001 67.32 77.136002 81.360001 88.980003 96.456001 104.052 111.528 119.844 126.996 134.10001 138.32401 148.14 152.364 157.87199 165.34801 172.944 180.42 188.73599 195.888 202.992 208.44 216.07201 221.58 225.948 230.172 237.64799 242.772 246.06 253.164 261.48001 268.63199 275.73599 279.95999 289.776 294 299.508 306.98401 312.108 315.396 322.5 330.81601 337.96799 345.07199 350.51999 358.15201 363.66 371.28 378.89999 383.26801">1`(2, {DID=&quot;did:m2xsolution:12&quot;, KeyPair = {pubKey = &quot;pubKey-2&quot;, privKey = &quot;privKey-2&quot;}}, </tspan><tspan
             id="tspan88"
             y="109"
             x="-198 -190.38 -182.172 -174.696 -167.22 -162.09599 -154.944 -148.692 -142.44 -132.62399 -127.116 -119.484 -112.38 -102.264 -95.052002 -88.800003 -81.204002 -77.916 -70.32 -63.167999 -54.959999 -47.484001 -40.007999 -34.883999 -27.732 -21.48 -15.228 -9.7799997 -2.148 3.3599999 7.7280002 11.952 20.184 27.396 30.684 37.896 45.492001 51.743999 58.896 63.119999 72.935997 80.568001 88.199997 95.82 101.268 111.084">{Address=&quot;0xMachineAddress-2&quot;, Balance =25})++</tspan><tspan
             id="tspan90"
             y="123"
             x="-198 -190.368 -182.73599 -177.28799 -169.65601 -165.28799 -161.064 -153.444 -144.192 -139.14 -129.888 -120.072 -114.564 -107.088 -103.8 -96.323997 -90.875999 -79.199997 -71.568001 -64.463997 -58.212002 -50.928001 -47.639999 -40.043999 -35.316002 -32.028 -24.743999 -17.148001 -11.7 -4.0679998 3.5639999 9.0719995 13.44 17.664 25.98 33.132 40.236 47.472 54.683998 57.972 63.096001 67.32 77.136002 81.360001 88.980003 96.456001 104.052 111.528 119.844 126.996 134.10001 138.32401 148.14 152.364 157.87199 165.34801 172.944 180.42 188.73599 195.888 202.992 208.44 216.07201 221.58 225.948 230.172 237.64799 242.772 246.06 253.164 261.48001 268.63199 275.73599 279.95999 289.776 294 299.508 306.98401 312.108 315.396 322.5 330.81601 337.96799 345.07199 350.51999 358.15201 363.66 371.28 378.89999 383.26801">1`(3, {DID=&quot;did:m2xsolution:13&quot;, KeyPair = {pubKey = &quot;pubKey-3&quot;, privKey = &quot;privKey-3&quot;}}, </tspan><tspan
             id="tspan92"
             y="137"
             x="-198 -190.38 -182.172 -174.696 -167.22 -162.09599 -154.944 -148.692 -142.44 -132.62399 -127.116 -119.484 -112.38 -102.264 -95.052002 -88.800003 -81.204002 -77.916 -70.32 -63.167999 -54.959999 -47.484001 -40.007999 -34.883999 -27.732 -21.48 -15.228 -9.7799997 -2.148 3.3599999 7.7280002 11.952 20.184 27.396 30.684 37.896 45.492001 51.743999 58.896 63.119999 72.935997 80.568001 88.199997 95.82">{Address=&quot;0xMachineAddress-3&quot;, Balance =25})</tspan></text>
</g><path
         id="path96"
         style="fill:#e3e3ff;fill-opacity:1;fill-rule:nonzero;stroke:none"
         d="m 1220,920 h 460 v 120 h -460 z" /><path
         id="path98"
         style="fill:none;stroke:#4d66cc;stroke-width:10;stroke-linecap:butt;stroke-linejoin:miter;stroke-miterlimit:10;stroke-dasharray:none;stroke-opacity:1"
         d="m 1220,920 h 460 v 120 h -460 z" /><g
         transform="scale(10)"
         id="g100"><text
           id="text104"
           style="font-variant:normal;font-weight:normal;font-size:12px;font-family:Verdana;-inkscape-font-specification:Verdana;writing-mode:lr-tb;fill:#4d66cc;fill-opacity:1;fill-rule:nonzero;stroke:none"
           transform="matrix(1,0,0,-1,124,94)"><tspan
             id="tspan102"
             y="0"
             x="0 5.052 12.648 18.096001 27.540001 35.136002">In/Out</tspan></text>
</g><path
         id="path106"
         style="fill:#ffffff;fill-opacity:1;fill-rule:nonzero;stroke:none"
         d="m 3590,2840 c 0,110.45 -134.32,200 -300,200 -165.68,0 -300,-89.55 -300,-200 0,-110.45 134.32,-200 300,-200 165.68,0 300,89.55 300,200" /><path
         id="path108"
         style="fill:none;stroke:#000000;stroke-width:10;stroke-linecap:butt;stroke-linejoin:miter;stroke-miterlimit:10;stroke-dasharray:none;stroke-opacity:1"
         d="m 3590,2840 c 0,110.45 -134.32,200 -300,200 -165.68,0 -300,-89.55 -300,-200 0,-110.45 134.32,-200 300,-200 165.68,0 300,89.55 300,200" /><path
         id="path110"
         style="fill:#ffffff;fill-opacity:1;fill-rule:nonzero;stroke:none"
         d="m 3550,2840 c 0,88.36 -116.41,160 -260,160 -143.59,0 -260,-71.64 -260,-160 0,-88.36 116.41,-160 260,-160 143.59,0 260,71.64 260,160" /><path
         id="path112"
         style="fill:none;stroke:#000000;stroke-width:10;stroke-linecap:butt;stroke-linejoin:miter;stroke-miterlimit:10;stroke-dasharray:none;stroke-opacity:1"
         d="m 3550,2840 c 0,88.36 -116.41,160 -260,160 -143.59,0 -260,-71.64 -260,-160 0,-88.36 116.41,-160 260,-160 143.59,0 260,71.64 260,160" /><g
         transform="scale(10)"
         id="g114"><text
           id="text118"
           style="font-variant:normal;font-weight:normal;font-size:12px;font-family:Verdana;-inkscape-font-specification:Verdana;writing-mode:lr-tb;fill:#000000;fill-opacity:1;fill-rule:nonzero;stroke:none"
           transform="matrix(1,0,0,-1,314.544,280)"><tspan
             id="tspan116"
             y="0"
             x="0 7.3920002 15.612 20.664">TXID</tspan></text>
</g><path
         id="path120"
         style="fill:#e3e3ff;fill-opacity:1;fill-rule:nonzero;stroke:none"
         d="m 2820,2610 h 460 v 120 h -460 z" /><path
         id="path122"
         style="fill:none;stroke:#4d66cc;stroke-width:10;stroke-linecap:butt;stroke-linejoin:miter;stroke-miterlimit:10;stroke-dasharray:none;stroke-opacity:1"
         d="m 2820,2610 h 460 v 120 h -460 z" /><g
         transform="scale(10)"
         id="g124"><text
           id="text128"
           style="font-variant:normal;font-weight:normal;font-size:12px;font-family:Verdana;-inkscape-font-specification:Verdana;writing-mode:lr-tb;fill:#4d66cc;fill-opacity:1;fill-rule:nonzero;stroke:none"
           transform="matrix(1,0,0,-1,284,263)"><tspan
             id="tspan126"
             y="0"
             x="0 5.052 12.648 18.096001 27.540001 35.136002">In/Out</tspan></text>
</g><g
         transform="scale(10)"
         id="g130"><text
           id="text136"
           style="font-variant:normal;font-weight:normal;font-size:12px;font-family:Verdana;-inkscape-font-specification:Verdana;writing-mode:lr-tb;fill:#000000;fill-opacity:1;fill-rule:nonzero;stroke:none"
           transform="matrix(1,0,0,-1,354,256)"><tspan
             id="tspan132"
             y="0"
             x="0 5.052 14.028">INT</tspan><tspan
             id="tspan134"
             y="-47"
             x="0 3.2880001 10.884 14.172 18.9 26.292 34.512001 39.563999">initTXID</tspan></text>
</g><path
         id="path138"
         style="fill:#e3e3ff;fill-opacity:1;fill-rule:nonzero;stroke:none"
         d="m 2820,2610 h 460 v 120 h -460 z" /><path
         id="path140"
         style="fill:none;stroke:#4d66cc;stroke-width:10;stroke-linecap:butt;stroke-linejoin:miter;stroke-miterlimit:10;stroke-dasharray:none;stroke-opacity:1"
         d="m 2820,2610 h 460 v 120 h -460 z" /><g
         transform="scale(10)"
         id="g142"><text
           id="text146"
           style="font-variant:normal;font-weight:normal;font-size:12px;font-family:Verdana;-inkscape-font-specification:Verdana;writing-mode:lr-tb;fill:#4d66cc;fill-opacity:1;fill-rule:nonzero;stroke:none"
           transform="matrix(1,0,0,-1,284,263)"><tspan
             id="tspan144"
             y="0"
             x="0 5.052 12.648 18.096001 27.540001 35.136002">In/Out</tspan></text>
</g><path
         id="path148"
         style="fill:#ffffff;fill-opacity:1;fill-rule:nonzero;stroke:none"
         d="m 2300,5040 c 0,165.68 -232.81,300 -520,300 -287.19,0 -520,-134.32 -520,-300 0,-165.68 232.81,-300 520,-300 287.19,0 520,134.32 520,300" /><path
         id="path150"
         style="fill:none;stroke:#000000;stroke-width:10;stroke-linecap:butt;stroke-linejoin:miter;stroke-miterlimit:10;stroke-dasharray:none;stroke-opacity:1"
         d="m 2300,5040 c 0,165.68 -232.81,300 -520,300 -287.19,0 -520,-134.32 -520,-300 0,-165.68 232.81,-300 520,-300 287.19,0 520,134.32 520,300" /><path
         id="path152"
         style="fill:#ffffff;fill-opacity:1;fill-rule:nonzero;stroke:none"
         d="m 2260,5040 c 0,143.59 -214.91,260 -480,260 -265.09,0 -480,-116.41 -480,-260 0,-143.59 214.91,-260 480,-260 265.09,0 480,116.41 480,260" /><path
         id="path154"
         style="fill:none;stroke:#000000;stroke-width:10;stroke-linecap:butt;stroke-linejoin:miter;stroke-miterlimit:10;stroke-dasharray:none;stroke-opacity:1"
         d="m 2260,5040 c 0,143.59 -214.91,260 -480,260 -265.09,0 -480,-116.41 -480,-260 0,-143.59 214.91,-260 480,-260 265.09,0 480,116.41 480,260" /><g
         transform="scale(10)"
         id="g156"><text
           id="text162"
           style="font-variant:normal;font-weight:normal;font-size:12px;font-family:Verdana;-inkscape-font-specification:Verdana;writing-mode:lr-tb;fill:#000000;fill-opacity:1;fill-rule:nonzero;stroke:none"
           transform="matrix(1,0,0,-1,152.91,507)"><tspan
             id="tspan158"
             y="0"
             x="0 8.9759998 16.128 20.856001 30.672001 37.956001 43.080002">Network</tspan><tspan
             id="tspan160"
             y="14"
             x="-6.20508 1.03092 8.2429199 13.36692 20.57892 32.254921 39.406921 44.134918 51.286919">Parameter</tspan></text>
</g><path
         id="path164"
         style="fill:#e3e3ff;fill-opacity:1;fill-rule:nonzero;stroke:none"
         d="m 1550,4980 h 460 v 120 h -460 z" /><path
         id="path166"
         style="fill:none;stroke:#4d66cc;stroke-width:10;stroke-linecap:butt;stroke-linejoin:miter;stroke-miterlimit:10;stroke-dasharray:none;stroke-opacity:1"
         d="m 1550,4980 h 460 v 120 h -460 z" /><g
         transform="scale(10)"
         id="g168"><text
           id="text172"
           style="font-variant:normal;font-weight:normal;font-size:12px;font-family:Verdana;-inkscape-font-specification:Verdana;writing-mode:lr-tb;fill:#4d66cc;fill-opacity:1;fill-rule:nonzero;stroke:none"
           transform="matrix(1,0,0,-1,157,500)"><tspan
             id="tspan170"
             y="0"
             x="0 5.052 12.648 18.096001 27.540001 35.136002">In/Out</tspan></text>
</g><g
         transform="scale(10)"
         id="g174"><text
           id="text180"
           style="font-variant:normal;font-weight:normal;font-size:12px;font-family:Verdana;-inkscape-font-specification:Verdana;writing-mode:lr-tb;fill:#000000;fill-opacity:1;fill-rule:nonzero;stroke:none"
           transform="matrix(1,0,0,-1,178,541)"><tspan
             id="tspan176"
             y="0"
             x="0 8.9759998 16.128 20.856001 30.672001 37.956001 43.080002 50.183998 57.419998 64.632004 69.755997 76.968002 88.643997 95.795998 100.524 107.676">NetworkParameter</tspan><tspan
             id="tspan178"
             y="41"
             x="56 59.287998 66.884003 70.171997 74.900002 83.875999">initNP</tspan></text>
</g><path
         id="path182"
         style="fill:#e3e3ff;fill-opacity:1;fill-rule:nonzero;stroke:none"
         d="m 1550,4980 h 460 v 120 h -460 z" /><path
         id="path184"
         style="fill:none;stroke:#4d66cc;stroke-width:10;stroke-linecap:butt;stroke-linejoin:miter;stroke-miterlimit:10;stroke-dasharray:none;stroke-opacity:1"
         d="m 1550,4980 h 460 v 120 h -460 z" /><g
         transform="scale(10)"
         id="g186"><text
           id="text190"
           style="font-variant:normal;font-weight:normal;font-size:12px;font-family:Verdana;-inkscape-font-specification:Verdana;writing-mode:lr-tb;fill:#4d66cc;fill-opacity:1;fill-rule:nonzero;stroke:none"
           transform="matrix(1,0,0,-1,157,500)"><tspan
             id="tspan188"
             y="0"
             x="0 5.052 12.648 18.096001 27.540001 35.136002">In/Out</tspan></text>
</g><path
         id="path192"
         style="fill:#ffffff;fill-opacity:1;fill-rule:nonzero;stroke:none"
         d="m 6430,3500 c 0,115.98 -201.47,210 -450,210 -248.53,0 -450,-94.02 -450,-210 0,-115.98 201.47,-210 450,-210 248.53,0 450,94.02 450,210" /><path
         id="path194"
         style="fill:none;stroke:#000000;stroke-width:10;stroke-linecap:butt;stroke-linejoin:miter;stroke-miterlimit:10;stroke-dasharray:none;stroke-opacity:1"
         d="m 6430,3500 c 0,115.98 -201.47,210 -450,210 -248.53,0 -450,-94.02 -450,-210 0,-115.98 201.47,-210 450,-210 248.53,0 450,94.02 450,210" /><g
         transform="scale(10)"
         id="g196"><text
           id="text210"
           style="font-variant:normal;font-weight:normal;font-size:12px;font-family:Verdana;-inkscape-font-specification:Verdana;writing-mode:lr-tb;fill:#000000;fill-opacity:1;fill-rule:nonzero;stroke:none"
           transform="matrix(1,0,0,-1,565.392,346)"><tspan
             id="tspan198"
             y="0"
             x="0 7.5840001 15.06 22.535999 29.688 37.919998 45.515999 49.740002 53.964001 61.116001">EdgeBuffer</tspan><tspan
             id="tspan200"
             y="32"
             x="-17.3918 -12.3398 -3.3638 4.0282001 11.1322 18.5242 23.648199 30.860201 38.4562 44.708199 51.9202 58.172199 62.9002 66.188202 73.472198">INTxTransaction</tspan><tspan
             id="tspan202"
             y="-49"
             x="81.6082 89.240196 96.8722 102.3202 109.9522 114.3202 118.5442 126.1642 131.2162 140.4682 144.6922 154.50819 158.73219 166.3642 170.73219 174.95621 179.18021 184.3042 191.5882 203.26421 207.4882 217.3042 221.5282 227.03619 234.6682 241.7722 250.5562 256.8082 263.96021 269.0842 276.71619 282.22421 286.59219 290.81619 295.54419 302.82819 307.05219 316.86819 321.09219 326.60019 334.23221 341.33621 350.12021 356.37219 363.5242 368.64819 376.28021 381.78821 386.15619">1`(1, {ID = 1, from = &quot;0xUser1&quot;, to = &quot;0xUser2&quot;, </tspan><tspan
             id="tspan204"
             y="-35"
             x="81.6082 88.820198 100.4962 107.7802 115.3762 122.9722 127.7002 131.92419 141.7402 145.9642 153.59621 161.2282 165.59621 169.82021 177.2962 184.8922 192.36819 199.4722 206.62421 213.7282 217.95219 227.7682 231.9922 237.5002 244.9762 252.5722 260.04819 268.3642 275.5162 282.62021 288.06821 296.8522 303.10419 310.2562 315.38019 323.01221 328.5202 332.88821 337.11221 341.84021 348.94421 357.15219 360.44019 367.9162 372.1402 381.95621 386.18021 391.6882 399.89621 403.1842 410.66019 418.29221 423.8002 431.4202 436.86819 446.6842">amount = 10, pubkey = &quot;pubKey-User1&quot;, txSig = &quot;Sig1&quot;})++</tspan><tspan
             id="tspan206"
             y="-21"
             x="81.6082 89.240196 96.8722 102.3202 109.9522 114.3202 118.5442 126.1642 131.2162 140.4682 144.6922 154.50819 158.73219 166.3642 170.73219 174.95621 179.18021 184.3042 191.5882 203.26421 207.4882 217.3042 221.5282 227.03619 234.6682 241.7722 250.5562 256.8082 263.96021 269.0842 276.71619 282.22421 286.59219 290.81619 295.54419 302.82819 307.05219 316.86819 321.09219 326.60019 334.23221 341.33621 350.12021 356.37219 363.5242 368.64819 376.28021 381.78821 386.15619">1`(2, {ID = 2, from = &quot;0xUser3&quot;, to = &quot;0xUser4&quot;, </tspan><tspan
             id="tspan208"
             y="-7"
             x="81.6082 88.820198 100.4962 107.7802 115.3762 122.9722 127.7002 131.92419 141.7402 145.9642 153.59621 161.2282 165.59621 169.82021 177.2962 184.8922 192.36819 199.4722 206.62421 213.7282 217.95219 227.7682 231.9922 237.5002 244.9762 252.5722 260.04819 268.3642 275.5162 282.62021 288.06821 296.8522 303.10419 310.2562 315.38019 323.01221 328.5202 332.88821 337.11221 341.84021 348.94421 357.15219 360.44019 367.9162 372.1402 381.95621 386.18021 391.6882 399.89621 403.1842 410.66019 418.29221 423.8002 431.4202">amount = 20, pubkey = &quot;pubKey-User3&quot;, txSig = &quot;Sig2&quot;})</tspan></text>
</g><path
         id="path212"
         style="fill:#ffffff;fill-opacity:1;fill-rule:nonzero;stroke:none"
         d="m 9940,1130 c 0,110.45 -134.32,200 -300,200 -165.68,0 -300,-89.55 -300,-200 0,-110.45 134.32,-200 300,-200 165.68,0 300,89.55 300,200" /><path
         id="path214"
         style="fill:none;stroke:#000000;stroke-width:10;stroke-linecap:butt;stroke-linejoin:miter;stroke-miterlimit:10;stroke-dasharray:none;stroke-opacity:1"
         d="m 9940,1130 c 0,110.45 -134.32,200 -300,200 -165.68,0 -300,-89.55 -300,-200 0,-110.45 134.32,-200 300,-200 165.68,0 300,89.55 300,200" /><path
         id="path216"
         style="fill:#ffffff;fill-opacity:1;fill-rule:nonzero;stroke:none"
         d="m 9900,1130 c 0,88.36 -116.41,160 -260,160 -143.59,0 -260,-71.64 -260,-160 0,-88.36 116.41,-160 260,-160 143.59,0 260,71.64 260,160" /><path
         id="path218"
         style="fill:none;stroke:#000000;stroke-width:10;stroke-linecap:butt;stroke-linejoin:miter;stroke-miterlimit:10;stroke-dasharray:none;stroke-opacity:1"
         d="m 9900,1130 c 0,88.36 -116.41,160 -260,160 -143.59,0 -260,-71.64 -260,-160 0,-88.36 116.41,-160 260,-160 143.59,0 260,71.64 260,160" /><g
         transform="scale(10)"
         id="g220"><text
           id="text224"
           style="font-variant:normal;font-weight:normal;font-size:12px;font-family:Verdana;-inkscape-font-specification:Verdana;writing-mode:lr-tb;fill:#000000;fill-opacity:1;fill-rule:nonzero;stroke:none"
           transform="matrix(1,0,0,-1,956.693,109)"><tspan
             id="tspan222"
             y="0"
             x="0 7.3920002">TX</tspan></text>
</g><path
         id="path226"
         style="fill:#e3e3ff;fill-opacity:1;fill-rule:nonzero;stroke:none"
         d="m 9250,900 h 280 v 120 h -280 z" /><path
         id="path228"
         style="fill:none;stroke:#4d66cc;stroke-width:10;stroke-linecap:butt;stroke-linejoin:miter;stroke-miterlimit:10;stroke-dasharray:none;stroke-opacity:1"
         d="m 9250,900 h 280 v 120 h -280 z" /><g
         transform="scale(10)"
         id="g230"><text
           id="text234"
           style="font-variant:normal;font-weight:normal;font-size:12px;font-family:Verdana;-inkscape-font-specification:Verdana;writing-mode:lr-tb;fill:#4d66cc;fill-opacity:1;fill-rule:nonzero;stroke:none"
           transform="matrix(1,0,0,-1,927,92)"><tspan
             id="tspan232"
             y="0"
             x="0 9.4440002 17.040001">Out</tspan></text>
</g><g
         transform="scale(10)"
         id="g236"><text
           id="text248"
           style="font-variant:normal;font-weight:normal;font-size:12px;font-family:Verdana;-inkscape-font-specification:Verdana;writing-mode:lr-tb;fill:#000000;fill-opacity:1;fill-rule:nonzero;stroke:none"
           transform="matrix(1,0,0,-1,988,85)"><tspan
             id="tspan238"
             y="0"
             x="0 5.052 14.028 21.42 28.524 35.916 41.040001 48.251999 55.848 62.099998 69.311996 75.564003 80.292 83.580002 90.863998 98.459999">INTxTransactiont</tspan><tspan
             id="tspan240"
             y="12"
             x="-196 -188.368 -180.73599 -175.28799 -167.65601 -163.28799 -159.064 -151.444 -146.392 -137.14 -132.916 -123.1 -118.876 -111.244 -106.876 -102.652 -98.428001 -93.304001 -86.019997 -74.344002 -70.120003 -60.304001 -56.080002 -50.571999 -42.939999 -35.835999 -27.052 -20.799999 -13.648 -8.5240002 -0.89200002 4.6160002 8.9840002 13.208 17.936001 25.219999 29.444 39.259998 43.484001 48.992001 56.624001 63.728001 72.512001 78.764 85.916 91.040001 98.671997 104.18 108.548">1`(1, {ID = 1, from = &quot;0xUser1&quot;, to = &quot;0xUser2&quot;, </tspan><tspan
             id="tspan242"
             y="26"
             x="-196 -188.78799 -177.112 -169.828 -162.23199 -154.636 -149.908 -145.68401 -135.868 -131.644 -124.012 -116.38 -112.012 -107.788 -100.312 -92.716003 -85.239998 -78.136002 -70.984001 -63.880001 -59.655998 -49.84 -45.616001 -40.108002 -32.632 -25.035999 -17.559999 -9.2440004 -2.092 5.0120001 10.46 19.243999 25.496 32.647999 37.771999 45.403999 50.911999 55.279999 59.504002 64.232002 71.335999 79.543999 82.832001 90.307999 94.531998 104.348 108.572 114.08 122.288 125.576 133.052 140.68401 146.192 153.812 159.25999 169.076">amount = 10, pubkey = &quot;pubKey-User1&quot;, txSig = &quot;Sig1&quot;})++</tspan><tspan
             id="tspan244"
             y="40"
             x="-196 -188.368 -180.73599 -175.28799 -167.65601 -163.28799 -159.064 -151.444 -146.392 -137.14 -132.916 -123.1 -118.876 -111.244 -106.876 -102.652 -98.428001 -93.304001 -86.019997 -74.344002 -70.120003 -60.304001 -56.080002 -50.571999 -42.939999 -35.835999 -27.052 -20.799999 -13.648 -8.5240002 -0.89200002 4.6160002 8.9840002 13.208 17.936001 25.219999 29.444 39.259998 43.484001 48.992001 56.624001 63.728001 72.512001 78.764 85.916 91.040001 98.671997 104.18 108.548">1`(2, {ID = 2, from = &quot;0xUser3&quot;, to = &quot;0xUser4&quot;, </tspan><tspan
             id="tspan246"
             y="54"
             x="-196 -188.78799 -177.112 -169.828 -162.23199 -154.636 -149.908 -145.68401 -135.868 -131.644 -124.012 -116.38 -112.012 -107.788 -100.312 -92.716003 -85.239998 -78.136002 -70.984001 -63.880001 -59.655998 -49.84 -45.616001 -40.108002 -32.632 -25.035999 -17.559999 -9.2440004 -2.092 5.0120001 10.46 19.243999 25.496 32.647999 37.771999 45.403999 50.911999 55.279999 59.504002 64.232002 71.335999 79.543999 82.832001 90.307999 94.531998 104.348 108.572 114.08 122.288 125.576 133.052 140.68401 146.192 153.812">amount = 20, pubkey = &quot;pubKey-User3&quot;, txSig = &quot;Sig2&quot;})</tspan></text>
</g><path
         id="path250"
         style="fill:#e3e3ff;fill-opacity:1;fill-rule:nonzero;stroke:none"
         d="m 9250,900 h 280 v 120 h -280 z" /><path
         id="path252"
         style="fill:none;stroke:#4d66cc;stroke-width:10;stroke-linecap:butt;stroke-linejoin:miter;stroke-miterlimit:10;stroke-dasharray:none;stroke-opacity:1"
         d="m 9250,900 h 280 v 120 h -280 z" /><g
         transform="scale(10)"
         id="g254"><text
           id="text258"
           style="font-variant:normal;font-weight:normal;font-size:12px;font-family:Verdana;-inkscape-font-specification:Verdana;writing-mode:lr-tb;fill:#4d66cc;fill-opacity:1;fill-rule:nonzero;stroke:none"
           transform="matrix(1,0,0,-1,927,92)"><tspan
             id="tspan256"
             y="0"
             x="0 9.4440002 17.040001">Out</tspan></text>
</g><path
         id="path260"
         style="fill:#ffffff;fill-opacity:1;fill-rule:nonzero;stroke:none"
         d="m 9020,2430 h 1240 v 500 H 9020 Z" /><path
         id="path262"
         style="fill:none;stroke:#000000;stroke-width:10;stroke-linecap:butt;stroke-linejoin:miter;stroke-miterlimit:10;stroke-dasharray:none;stroke-opacity:1"
         d="m 9020,2430 h 1240 v 500 H 9020 Z" /><g
         transform="scale(10)"
         id="g264"><text
           id="text268"
           style="font-variant:normal;font-weight:normal;font-size:12px;font-family:Verdana;-inkscape-font-specification:Verdana;writing-mode:lr-tb;fill:#000000;fill-opacity:1;fill-rule:nonzero;stroke:none"
           transform="matrix(1,0,0,-1,921.027,264)"><tspan
             id="tspan266"
             y="0"
             x="0 7.5840001 15.06 22.535999 29.688 37.32 44.556 51.768002 58.02 65.124001 72.335999 79.811996">Edge_Package</tspan></text>
</g><path
         id="path270"
         style="fill:#ffffff;fill-opacity:1;fill-rule:nonzero;stroke:none"
         d="m 1160,3210 h 1240 v 580 H 1160 Z" /><path
         id="path272"
         style="fill:none;stroke:#000000;stroke-width:10;stroke-linecap:butt;stroke-linejoin:miter;stroke-miterlimit:10;stroke-dasharray:none;stroke-opacity:1"
         d="m 1160,3210 h 1240 v 580 H 1160 Z" /><g
         transform="scale(10)"
         id="g274"><text
           id="text286"
           style="font-variant:normal;font-weight:normal;font-size:12px;font-family:Verdana;-inkscape-font-specification:Verdana;writing-mode:lr-tb;fill:#000000;fill-opacity:1;fill-rule:nonzero;stroke:none"
           transform="matrix(1,0,0,-1,142.99,353)"><tspan
             id="tspan276"
             y="0"
             x="0 10.116 17.327999 24.924 32.136002 39.612 46.764 54.972 62.568001">ManageAnd</tspan><tspan
             id="tspan278"
             y="14"
             x="-19.819099 -11.4431 -6.3190999 0.83289999 8.0448999 12.7729 19.9249 27.3169 32.440899 39.652901 47.248901 53.5009 60.712898 66.964897 71.692902 74.980904 82.2649">CreateTransaction</tspan><tspan
             id="tspan280"
             y="-61"
             x="-122.9901 -117.5421 -107.7261 -99.494102 -92.282097 -88.994102 -81.782097 -74.186096 -67.934097 -60.782101">[#Balance </tspan><tspan
             id="tspan282"
             y="-47"
             x="-122.9901 -111.3141 -104.1021 -97.850098 -90.254097 -86.966103 -79.370102 -72.218102 -60.350101 -53.1381 -49.850101 -46.562099 -39.410099 -34.682098 -30.458099 -20.642099 -10.8261">machineWallet &gt;= </tspan><tspan
             id="tspan284"
             y="-33"
             x="-122.9901 -113.1741 -101.4981 -98.210098 -90.614098 -81.362099 -74.210098 -66.7341 -59.4501 -53.198101 -49.910099 -45.182098 -40.958099 -31.9821 -24.746099">#minDeposit NP]</tspan></text>
</g><path
         id="path288"
         style="fill:none;stroke:#000000;stroke-width:10;stroke-linecap:butt;stroke-linejoin:miter;stroke-miterlimit:10;stroke-dasharray:none;stroke-opacity:1"
         d="M 1160,3570 H 801.023" /><path
         id="path290"
         style="fill:#000000;fill-opacity:1;fill-rule:nonzero;stroke:none"
         d="m 1016,3510 144,60 -144,60 48,-60" /><path
         id="path292"
         style="fill:none;stroke:#000000;stroke-width:10;stroke-linecap:butt;stroke-linejoin:miter;stroke-miterlimit:10;stroke-dasharray:none;stroke-opacity:1"
         d="M 1710,3210 V 1605.33" /><path
         id="path294"
         style="fill:#000000;fill-opacity:1;fill-rule:nonzero;stroke:none"
         d="m 1650,1749.33 60,-144 60,144 -60,-48" /><g
         transform="scale(10)"
         id="g296"><text
           id="text310"
           style="font-variant:normal;font-weight:normal;font-size:12px;font-family:Verdana;-inkscape-font-specification:Verdana;writing-mode:lr-tb;fill:#000000;fill-opacity:1;fill-rule:nonzero;stroke:none"
           transform="matrix(1,0,0,-1,40,271)"><tspan
             id="tspan298"
             y="0"
             x="0 5.448 10.5 19.752001 24.120001 28.344 40.02 47.231998 53.484001 61.080002 64.367996 71.963997 79.115997 84.167999 93.419998 97.788002 102.012">(ID, machineID, {</tspan><tspan
             id="tspan300"
             y="14"
             x="0 8.2080002 15.684 23.16 28.284 35.436001 41.688 47.939999 57.756001 61.98 71.795998 80.003998 87.480003 94.956001 100.08 107.232 113.484 119.736">Address= #Address </tspan><tspan
             id="tspan302"
             y="28"
             x="0 11.676 18.888 25.139999 32.736 36.023998 43.619999 50.771999 62.639999 69.851997 73.139999 76.428001 83.580002 88.307999 92.676003">machineWallet, </tspan><tspan
             id="tspan304"
             y="42"
             x="0 8.2320004 15.444 18.732 25.944 33.540001 39.792 46.944 51.167999 60.984001 65.208 70.655998 80.472 88.704002 95.916 99.204002 106.416 114.012 120.264 127.416">Balance = (#Balance </tspan><tspan
             id="tspan306"
             y="56"
             x="0 11.676 18.888 25.139999 32.736 36.023998 43.619999 50.771999 62.639999 69.851997 73.139999 76.428001 83.580002 88.307999 93.755997">machineWallet)-</tspan><tspan
             id="tspan308"
             y="70"
             x="0 5.448 15.264 26.940001 30.228001 37.824001 47.076 54.228001 61.703999 68.987999 75.239998 78.528 83.255997 87.480003 96.456001 103.692 109.14 116.76">(#minDeposit NP)})</tspan></text>
</g><path
         id="path312"
         style="fill:none;stroke:#000000;stroke-width:10;stroke-linecap:butt;stroke-linejoin:miter;stroke-miterlimit:10;stroke-dasharray:none;stroke-opacity:1"
         d="M 1160,3430 H 801.023" /><path
         id="path314"
         style="fill:#000000;fill-opacity:1;fill-rule:nonzero;stroke:none"
         d="m 945.023,3490 -144,-60 144,-60 -48,60" /><path
         id="path316"
         style="fill:none;stroke:#000000;stroke-width:10;stroke-linecap:butt;stroke-linejoin:miter;stroke-miterlimit:10;stroke-dasharray:none;stroke-opacity:1"
         d="m 2268.7,3210 731.01,-319.52" /><path
         id="path318"
         style="fill:#000000;fill-opacity:1;fill-rule:nonzero;stroke:none"
         d="m 2843.74,2893.18 155.97,-2.7 -107.91,112.66 19.95,-74.21" /><g
         transform="scale(10)"
         id="g320"><text
           id="text324"
           style="font-variant:normal;font-weight:normal;font-size:12px;font-family:Verdana;-inkscape-font-specification:Verdana;writing-mode:lr-tb;fill:#000000;fill-opacity:1;fill-rule:nonzero;stroke:none"
           transform="matrix(1,0,0,-1,251,279)"><tspan
             id="tspan322"
             y="0"
             x="0 7.3920002 15.612 20.664 29.916 34.139999 43.956001 48.18">TXID + 1</tspan></text>
</g><path
         id="path326"
         style="fill:none;stroke:#000000;stroke-width:10;stroke-linecap:butt;stroke-linejoin:miter;stroke-miterlimit:10;stroke-dasharray:none;stroke-opacity:1"
         d="m 2400,3305.4 704.8,-308.06" /><path
         id="path328"
         style="fill:#000000;fill-opacity:1;fill-rule:nonzero;stroke:none"
         d="m 2555.98,3302.71 -155.98,2.69 107.92,-112.65 -19.96,74.2" /><g
         transform="scale(10)"
         id="g330"><text
           id="text334"
           style="font-variant:normal;font-weight:normal;font-size:12px;font-family:Verdana;-inkscape-font-specification:Verdana;writing-mode:lr-tb;fill:#000000;fill-opacity:1;fill-rule:nonzero;stroke:none"
           transform="matrix(1,0,0,-1,281,320)"><tspan
             id="tspan332"
             y="0"
             x="0 7.3920002 15.612 20.664">TXID</tspan></text>
</g><path
         id="path336"
         style="fill:none;stroke:#000000;stroke-width:10;stroke-linecap:butt;stroke-linejoin:miter;stroke-miterlimit:10;stroke-dasharray:none;stroke-opacity:1"
         d="m 1850,3790 v 952.73" /><path
         id="path338"
         style="fill:#000000;fill-opacity:1;fill-rule:nonzero;stroke:none"
         d="m 1790,3934 60,-144 60,144 -60,-48" /><g
         transform="scale(10)"
         id="g340"><text
           id="text344"
           style="font-variant:normal;font-weight:normal;font-size:12px;font-family:Verdana;-inkscape-font-specification:Verdana;writing-mode:lr-tb;fill:#000000;fill-opacity:1;fill-rule:nonzero;stroke:none"
           transform="matrix(1,0,0,-1,157,448)"><tspan
             id="tspan342"
             y="0"
             x="0 8.9759998">NP</tspan></text>
</g><path
         id="path346"
         style="fill:none;stroke:#000000;stroke-width:10;stroke-linecap:butt;stroke-linejoin:miter;stroke-miterlimit:10;stroke-dasharray:none;stroke-opacity:1"
         d="M 2400,3500 H 5530" /><path
         id="path348"
         style="fill:#000000;fill-opacity:1;fill-rule:nonzero;stroke:none"
         d="m 5386,3440 144,60 -144,60 48,-60" /><g
         transform="scale(10)"
         id="g350"><text
           id="text364"
           style="font-variant:normal;font-weight:normal;font-size:12px;font-family:Verdana;-inkscape-font-specification:Verdana;writing-mode:lr-tb;fill:#000000;fill-opacity:1;fill-rule:nonzero;stroke:none"
           transform="matrix(1,0,0,-1,261,427)"><tspan
             id="tspan352"
             y="0"
             x="0 5.448 10.5 19.752001 24.120001 28.344 35.964001 41.015999 50.268002 60.084 64.307999 71.699997 79.919998 84.972 94.223999 98.592003">(ID, {ID= TXID, </tspan><tspan
             id="tspan354"
             y="14"
             x="0 4.224 9.3479996 16.632 28.308001 32.532001 42.348 46.571999 56.388 64.596001 72.071999 79.547997 84.671997 91.823997 98.075996 104.328 108.552 120.228 127.44 133.692 141.28799 144.576 152.172 159.32401 171.192 178.40401 181.692 184.98 192.132 196.86">from = #Address machineWallet,</tspan><tspan
             id="tspan356"
             y="28"
             x="0 4.7280002 12.012 16.236 26.052 30.275999 40.091999 47.568001 54.720001 62.195999 69.480003 75.732002 79.019997 83.748001 91.956001 99.431999 106.908 112.032 119.184 125.436 131.688 135.912 144.888 152.12399">to = #depositAddress NP,</tspan><tspan
             id="tspan358"
             y="42"
             x="0 7.2119999 18.888 26.172001 33.768002 41.363998 46.091999 50.316002 60.132 64.356003 74.171997 85.848 89.136002 96.732002 105.984 113.136 120.612 127.896 134.14799 137.436 142.164 146.388 155.364 162.60001">amount = #minDeposit NP,</tspan><tspan
             id="tspan360"
             y="56"
             x="0 7.4759998 15.072 22.548 29.652 36.804001 43.908001 48.132 57.948002 62.172001 71.987999 79.463997 87.059998 94.536003 102.852 110.004 117.108 121.332 126.78 136.59599 144.912 152.064 159.168 166.40401 173.616 176.90401 182.028 186.252 197.92799 205.14 211.392 218.98801 222.276 229.87199 237.024 242.076 251.328 256.776">pubkey = #pubKey (#KeyPair machineID),</tspan><tspan
             id="tspan362"
             y="70"
             x="0 4.7280002 11.832 20.040001 23.327999 30.804001 35.028 44.844002 49.068001 58.883999 66.360001 71.484001 74.772003 81.875999 90.192001 97.344002 104.448 108.672 114.12 123.936 132.252 139.40401 146.508 153.744 160.95599 164.244 169.368 173.592 185.26801 192.48 198.73199 206.328 209.616 217.21201 224.364 229.416 238.668 244.116 251.73599">txSig = #privKey (#KeyPair machineID)})</tspan></text>
</g><path
         id="path366"
         style="fill:none;stroke:#000000;stroke-width:10;stroke-linecap:butt;stroke-linejoin:miter;stroke-miterlimit:10;stroke-dasharray:none;stroke-opacity:1"
         d="m 1710,3790 v 952.73" /><path
         id="path368"
         style="fill:#000000;fill-opacity:1;fill-rule:nonzero;stroke:none"
         d="m 1770,4598.73 -60,144 -60,-144 60,48" /><g
         transform="scale(10)"
         id="g370"><text
           id="text374"
           style="font-variant:normal;font-weight:normal;font-size:12px;font-family:Verdana;-inkscape-font-specification:Verdana;writing-mode:lr-tb;fill:#000000;fill-opacity:1;fill-rule:nonzero;stroke:none"
           transform="matrix(1,0,0,-1,175,441)"><tspan
             id="tspan372"
             y="0"
             x="0 8.9759998">NP</tspan></text>
</g><path
         id="path376"
         style="fill:none;stroke:#000000;stroke-width:10;stroke-linecap:butt;stroke-linejoin:miter;stroke-miterlimit:10;stroke-dasharray:none;stroke-opacity:1"
         d="M 1850,3210 V 1605.33" /><path
         id="path378"
         style="fill:#000000;fill-opacity:1;fill-rule:nonzero;stroke:none"
         d="m 1910,3066 -60,144 -60,-144 60,48" /><g
         transform="scale(10)"
         id="g380"><text
           id="text384"
           style="font-variant:normal;font-weight:normal;font-size:12px;font-family:Verdana;-inkscape-font-specification:Verdana;writing-mode:lr-tb;fill:#000000;fill-opacity:1;fill-rule:nonzero;stroke:none"
           transform="matrix(1,0,0,-1,189,237)"><tspan
             id="tspan382"
             y="0"
             x="0 5.448 10.5 19.752001 24.120001 28.344 40.02 47.231998 53.484001 61.080002 64.367996 71.963997 79.115997 84.167999 93.419998 97.788002 102.012 113.688 120.9 127.152 134.748 138.036 145.632 152.784 164.65199 171.864 175.15199 178.44 185.592 190.32001">(ID, machineID, machineWallet)</tspan></text>
</g><path
         id="path386"
         style="fill:none;stroke:#000000;stroke-width:10;stroke-linecap:butt;stroke-linejoin:miter;stroke-miterlimit:10;stroke-dasharray:none;stroke-opacity:1"
         d="m 9020,2818.91 -2634.33,590.2" /><path
         id="path388"
         style="fill:#000000;fill-opacity:1;fill-rule:nonzero;stroke:none"
         d="m 8866.37,2791.84 153.63,27.07 -127.4,90.03 33.72,-69.05" /><g
         transform="scale(10)"
         id="g390"><text
           id="text394"
           style="font-variant:normal;font-weight:normal;font-size:12px;font-family:Verdana;-inkscape-font-specification:Verdana;writing-mode:lr-tb;fill:#000000;fill-opacity:1;fill-rule:nonzero;stroke:none"
           transform="matrix(1,0,0,-1,717,304)"><tspan
             id="tspan392"
             y="0"
             x="0 4.7280002 11.832 19.416 26.892 34.368">txEdge</tspan></text>
</g><path
         id="path396"
         style="fill:none;stroke:#000000;stroke-width:10;stroke-linecap:butt;stroke-linejoin:miter;stroke-miterlimit:10;stroke-dasharray:none;stroke-opacity:1"
         d="M 9640,2430 V 1330" /><path
         id="path398"
         style="fill:#000000;fill-opacity:1;fill-rule:nonzero;stroke:none"
         d="m 9580,1474 60,-144 60,144 -60,-48" /><g
         transform="scale(10)"
         id="g400"><text
           id="text404"
           style="font-variant:normal;font-weight:normal;font-size:12px;font-family:Verdana;-inkscape-font-specification:Verdana;writing-mode:lr-tb;fill:#000000;fill-opacity:1;fill-rule:nonzero;stroke:none"
           transform="matrix(1,0,0,-1,815,190)"><tspan
             id="tspan402"
             y="0"
             x="0 7.632 15.264 19.992001 27.096001 34.68 42.155998 49.632 56.784 68.783997 78.599998 86.183998 95.435997 104.736 112.32 119.952 126.636 134.84399">1`txEdge@+EDGE_LAT</tspan></text>
</g></g></g></svg>