<?xml version="1.0" encoding="UTF-8" standalone="no"?>
<svg
   xmlns:dc="http://purl.org/dc/elements/1.1/"
   xmlns:cc="http://creativecommons.org/ns#"
   xmlns:rdf="http://www.w3.org/1999/02/22-rdf-syntax-ns#"
   xmlns:svg="http://www.w3.org/2000/svg"
   xmlns="http://www.w3.org/2000/svg"
   viewBox="0 0 1270.6667 693.33331"
   height="693.33331"
   width="1270.6667"
   xml:space="preserve"
   id="svg2"
   version="1.1"><metadata
     id="metadata8"><rdf:RDF><cc:Work
         rdf:about=""><dc:format>image/svg+xml</dc:format><dc:type
           rdf:resource="http://purl.org/dc/dcmitype/StillImage" /></cc:Work></rdf:RDF></metadata><defs
     id="defs6" /><g
     transform="matrix(1.3333333,0,0,-1.3333333,0,693.33333)"
     id="g10"><g
       transform="scale(0.1)"
       id="g12"><path
         id="path14"
         style="fill:#ffffff;fill-opacity:1;fill-rule:nonzero;stroke:none"
         d="m 2260,3410 c 0,110.45 -134.32,200 -300,200 -165.68,0 -300,-89.55 -300,-200 0,-110.45 134.32,-200 300,-200 165.68,0 300,89.55 300,200" /><path
         id="path16"
         style="fill:none;stroke:#000000;stroke-width:10;stroke-linecap:butt;stroke-linejoin:miter;stroke-miterlimit:10;stroke-dasharray:none;stroke-opacity:1"
         d="m 2260,3410 c 0,110.45 -134.32,200 -300,200 -165.68,0 -300,-89.55 -300,-200 0,-110.45 134.32,-200 300,-200 165.68,0 300,89.55 300,200" /><path
         id="path18"
         style="fill:#ffffff;fill-opacity:1;fill-rule:nonzero;stroke:none"
         d="m 2220,3410 c 0,88.36 -116.41,160 -260,160 -143.59,0 -260,-71.64 -260,-160 0,-88.36 116.41,-160 260,-160 143.59,0 260,71.64 260,160" /><path
         id="path20"
         style="fill:none;stroke:#000000;stroke-width:10;stroke-linecap:butt;stroke-linejoin:miter;stroke-miterlimit:10;stroke-dasharray:none;stroke-opacity:1"
         d="m 2220,3410 c 0,88.36 -116.41,160 -260,160 -143.59,0 -260,-71.64 -260,-160 0,-88.36 116.41,-160 260,-160 143.59,0 260,71.64 260,160" /><g
         transform="scale(10)"
         id="g22"><text
           id="text26"
           style="font-variant:normal;font-weight:normal;font-size:12px;font-family:Verdana;-inkscape-font-specification:Verdana;writing-mode:lr-tb;fill:#000000;fill-opacity:1;fill-rule:nonzero;stroke:none"
           transform="matrix(1,0,0,-1,178.699,337)"><tspan
             id="tspan24"
             y="0"
             x="0 8.2080002 15.804 23.016001 28.139999">Shard</tspan></text>
</g><path
         id="path28"
         style="fill:#e3e3ff;fill-opacity:1;fill-rule:nonzero;stroke:none"
         d="m 1490,3180 h 460 v 120 h -460 z" /><path
         id="path30"
         style="fill:none;stroke:#4d66cc;stroke-width:10;stroke-linecap:butt;stroke-linejoin:miter;stroke-miterlimit:10;stroke-dasharray:none;stroke-opacity:1"
         d="m 1490,3180 h 460 v 120 h -460 z" /><g
         transform="scale(10)"
         id="g32"><text
           id="text36"
           style="font-variant:normal;font-weight:normal;font-size:12px;font-family:Verdana;-inkscape-font-specification:Verdana;writing-mode:lr-tb;fill:#4d66cc;fill-opacity:1;fill-rule:nonzero;stroke:none"
           transform="matrix(1,0,0,-1,151,320)"><tspan
             id="tspan34"
             y="0"
             x="0 5.052 12.648 18.096001 27.540001 35.136002">In/Out</tspan></text>
</g><path
         id="path38"
         style="fill:#e3e3ff;fill-opacity:1;fill-rule:nonzero;stroke:none"
         d="m 1490,3180 h 460 v 120 h -460 z" /><path
         id="path40"
         style="fill:none;stroke:#4d66cc;stroke-width:10;stroke-linecap:butt;stroke-linejoin:miter;stroke-miterlimit:10;stroke-dasharray:none;stroke-opacity:1"
         d="m 1490,3180 h 460 v 120 h -460 z" /><g
         transform="scale(10)"
         id="g42"><text
           id="text46"
           style="font-variant:normal;font-weight:normal;font-size:12px;font-family:Verdana;-inkscape-font-specification:Verdana;writing-mode:lr-tb;fill:#4d66cc;fill-opacity:1;fill-rule:nonzero;stroke:none"
           transform="matrix(1,0,0,-1,151,320)"><tspan
             id="tspan44"
             y="0"
             x="0 5.052 12.648 18.096001 27.540001 35.136002">In/Out</tspan></text>
</g><path
         id="path48"
         style="fill:#ffffff;fill-opacity:1;fill-rule:nonzero;stroke:none"
         d="m 3650,1170 c 0,193.3 -192.52,350 -430,350 -237.48,0 -430,-156.7 -430,-350 0,-193.297 192.52,-350 430,-350 237.48,0 430,156.703 430,350" /><path
         id="path50"
         style="fill:none;stroke:#000000;stroke-width:10;stroke-linecap:butt;stroke-linejoin:miter;stroke-miterlimit:10;stroke-dasharray:none;stroke-opacity:1"
         d="m 3650,1170 c 0,193.3 -192.52,350 -430,350 -237.48,0 -430,-156.7 -430,-350 0,-193.297 192.52,-350 430,-350 237.48,0 430,156.703 430,350" /><path
         id="path52"
         style="fill:#ffffff;fill-opacity:1;fill-rule:nonzero;stroke:none"
         d="m 3610,1170 c 0,171.21 -174.61,310 -390,310 -215.39,0 -390,-138.79 -390,-310 0,-171.207 174.61,-310 390,-310 215.39,0 390,138.793 390,310" /><path
         id="path54"
         style="fill:none;stroke:#000000;stroke-width:10;stroke-linecap:butt;stroke-linejoin:miter;stroke-miterlimit:10;stroke-dasharray:none;stroke-opacity:1"
         d="m 3610,1170 c 0,171.21 -174.61,310 -390,310 -215.39,0 -390,-138.79 -390,-310 0,-171.207 174.61,-310 390,-310 215.39,0 390,138.793 390,310" /><g
         transform="scale(10)"
         id="g56"><text
           id="text60"
           style="font-variant:normal;font-weight:normal;font-size:12px;font-family:Verdana;-inkscape-font-specification:Verdana;writing-mode:lr-tb;fill:#000000;fill-opacity:1;fill-rule:nonzero;stroke:none"
           transform="matrix(1,0,0,-1,297.9,113)"><tspan
             id="tspan58"
             y="0"
             x="0 10.116 17.327999 23.58 31.176001 34.464001 42.060001">Machine</tspan></text>
</g><path
         id="path62"
         style="fill:#e3e3ff;fill-opacity:1;fill-rule:nonzero;stroke:none"
         d="m 2660,830 h 460 v 120 h -460 z" /><path
         id="path64"
         style="fill:none;stroke:#4d66cc;stroke-width:10;stroke-linecap:butt;stroke-linejoin:miter;stroke-miterlimit:10;stroke-dasharray:none;stroke-opacity:1"
         d="m 2660,830 h 460 v 120 h -460 z" /><g
         transform="scale(10)"
         id="g66"><text
           id="text70"
           style="font-variant:normal;font-weight:normal;font-size:12px;font-family:Verdana;-inkscape-font-specification:Verdana;writing-mode:lr-tb;fill:#4d66cc;fill-opacity:1;fill-rule:nonzero;stroke:none"
           transform="matrix(1,0,0,-1,268,85)"><tspan
             id="tspan68"
             y="0"
             x="0 5.052 12.648 18.096001 27.540001 35.136002">In/Out</tspan></text>
</g><g
         transform="scale(10)"
         id="g72"><text
           id="text88"
           style="font-variant:normal;font-weight:normal;font-size:12px;font-family:Verdana;-inkscape-font-specification:Verdana;writing-mode:lr-tb;fill:#000000;fill-opacity:1;fill-rule:nonzero;stroke:none"
           transform="matrix(1,0,0,-1,356,136)"><tspan
             id="tspan74"
             y="0"
             x="0 5.052 14.028 21.42 28.524 38.639999 45.852001 52.104 59.700001 62.987999 70.584 77.736 82.788002 90.264 97.416 105.012 109.74 113.028 117.756 124.86 131.964 143.832 151.04401 154.332 157.62 164.772">INTxMachineIdentityxWallet</tspan><tspan
             id="tspan76"
             y="58"
             x="0 7.632 15.264 20.712 28.344 32.712002 36.936001 44.556 53.807999 58.860001 68.112 77.928001 83.435997 90.912003 94.199997 101.676 107.124 118.8 126.432 133.536 139.78799 147.07201 150.36 157.95599 162.68401 165.972 173.256 180.85201 186.3 193.93201 201.564 207.07201 211.44 215.664 223.98 231.132 238.23599 245.472 252.68401 255.972 261.09601 265.32001 275.13599 279.35999 286.98001 294.45599 302.052 309.52802 317.84399 324.996 332.10001 336.32401 346.14001 350.36401 355.87201 363.34799 370.944 378.42001 386.73599 393.888 400.992 406.44 414.07199 419.57999 423.948 428.172 435.64801 440.772 444.06 451.164 459.48001 466.63199 473.73599 477.95999 487.776 492 497.508 504.98401 510.108 513.396 520.5 528.81598 535.96802 543.07202 548.52002 556.15198 561.65997 569.28003 576.90002 581.26801">1`(1, {DID=&quot;did:m2xsolution:11&quot;, KeyPair = {pubKey = &quot;pubKey-1&quot;, privKey = &quot;privKey-1&quot;}}, </tspan><tspan
             id="tspan78"
             y="72"
             x="0 7.6199999 15.828 23.304001 30.780001 35.903999 43.056 49.307999 55.560001 65.375999 70.884003 78.515999 85.620003 95.736 102.948 109.2 116.796 120.084 127.68 134.832 143.03999 150.51601 157.992 163.116 170.26801 176.52 182.772 188.22 195.85201 201.36 205.728 209.952 218.18401 225.396 228.68401 235.896 243.492 249.744 256.896 261.12 270.936 278.56799 286.20001 293.82001 299.26801 309.08401">{Address=&quot;0xMachineAddress-1&quot;, Balance =25})++</tspan><tspan
             id="tspan80"
             y="86"
             x="0 7.632 15.264 20.712 28.344 32.712002 36.936001 44.556 53.807999 58.860001 68.112 77.928001 83.435997 90.912003 94.199997 101.676 107.124 118.8 126.432 133.536 139.78799 147.07201 150.36 157.95599 162.68401 165.972 173.256 180.85201 186.3 193.93201 201.564 207.07201 211.44 215.664 223.98 231.132 238.23599 245.472 252.68401 255.972 261.09601 265.32001 275.13599 279.35999 286.98001 294.45599 302.052 309.52802 317.84399 324.996 332.10001 336.32401 346.14001 350.36401 355.87201 363.34799 370.944 378.42001 386.73599 393.888 400.992 406.44 414.07199 419.57999 423.948 428.172 435.64801 440.772 444.06 451.164 459.48001 466.63199 473.73599 477.95999 487.776 492 497.508 504.98401 510.108 513.396 520.5 528.81598 535.96802 543.07202 548.52002 556.15198 561.65997 569.28003 576.90002 581.26801">1`(2, {DID=&quot;did:m2xsolution:12&quot;, KeyPair = {pubKey = &quot;pubKey-2&quot;, privKey = &quot;privKey-2&quot;}}, </tspan><tspan
             id="tspan82"
             y="100"
             x="0 7.6199999 15.828 23.304001 30.780001 35.903999 43.056 49.307999 55.560001 65.375999 70.884003 78.515999 85.620003 95.736 102.948 109.2 116.796 120.084 127.68 134.832 143.03999 150.51601 157.992 163.116 170.26801 176.52 182.772 188.22 195.85201 201.36 205.728 209.952 218.18401 225.396 228.68401 235.896 243.492 249.744 256.896 261.12 270.936 278.56799 286.20001 293.82001 299.26801 309.08401">{Address=&quot;0xMachineAddress-2&quot;, Balance =25})++</tspan><tspan
             id="tspan84"
             y="114"
             x="0 7.632 15.264 20.712 28.344 32.712002 36.936001 44.556 53.807999 58.860001 68.112 77.928001 83.435997 90.912003 94.199997 101.676 107.124 118.8 126.432 133.536 139.78799 147.07201 150.36 157.95599 162.68401 165.972 173.256 180.85201 186.3 193.93201 201.564 207.07201 211.44 215.664 223.98 231.132 238.23599 245.472 252.68401 255.972 261.09601 265.32001 275.13599 279.35999 286.98001 294.45599 302.052 309.52802 317.84399 324.996 332.10001 336.32401 346.14001 350.36401 355.87201 363.34799 370.944 378.42001 386.73599 393.888 400.992 406.44 414.07199 419.57999 423.948 428.172 435.64801 440.772 444.06 451.164 459.48001 466.63199 473.73599 477.95999 487.776 492 497.508 504.98401 510.108 513.396 520.5 528.81598 535.96802 543.07202 548.52002 556.15198 561.65997 569.28003 576.90002 581.26801">1`(3, {DID=&quot;did:m2xsolution:13&quot;, KeyPair = {pubKey = &quot;pubKey-3&quot;, privKey = &quot;privKey-3&quot;}}, </tspan><tspan
             id="tspan86"
             y="128"
             x="0 7.6199999 15.828 23.304001 30.780001 35.903999 43.056 49.307999 55.560001 65.375999 70.884003 78.515999 85.620003 95.736 102.948 109.2 116.796 120.084 127.68 134.832 143.03999 150.51601 157.992 163.116 170.26801 176.52 182.772 188.22 195.85201 201.36 205.728 209.952 218.18401 225.396 228.68401 235.896 243.492 249.744 256.896 261.12 270.936 278.56799 286.20001 293.82001">{Address=&quot;0xMachineAddress-3&quot;, Balance =25})</tspan></text>
</g><path
         id="path90"
         style="fill:#e3e3ff;fill-opacity:1;fill-rule:nonzero;stroke:none"
         d="m 2660,830 h 460 v 120 h -460 z" /><path
         id="path92"
         style="fill:none;stroke:#4d66cc;stroke-width:10;stroke-linecap:butt;stroke-linejoin:miter;stroke-miterlimit:10;stroke-dasharray:none;stroke-opacity:1"
         d="m 2660,830 h 460 v 120 h -460 z" /><g
         transform="scale(10)"
         id="g94"><text
           id="text98"
           style="font-variant:normal;font-weight:normal;font-size:12px;font-family:Verdana;-inkscape-font-specification:Verdana;writing-mode:lr-tb;fill:#4d66cc;fill-opacity:1;fill-rule:nonzero;stroke:none"
           transform="matrix(1,0,0,-1,268,85)"><tspan
             id="tspan96"
             y="0"
             x="0 5.052 12.648 18.096001 27.540001 35.136002">In/Out</tspan></text>
</g><path
         id="path100"
         style="fill:#ffffff;fill-opacity:1;fill-rule:nonzero;stroke:none"
         d="m 890,4950 c 0,110.45 -134.316,200 -300,200 -165.684,0 -300,-89.55 -300,-200 0,-110.45 134.316,-200 300,-200 165.684,0 300,89.55 300,200" /><path
         id="path102"
         style="fill:none;stroke:#000000;stroke-width:10;stroke-linecap:butt;stroke-linejoin:miter;stroke-miterlimit:10;stroke-dasharray:none;stroke-opacity:1"
         d="m 890,4950 c 0,110.45 -134.316,200 -300,200 -165.684,0 -300,-89.55 -300,-200 0,-110.45 134.316,-200 300,-200 165.684,0 300,89.55 300,200" /><path
         id="path104"
         style="fill:#ffffff;fill-opacity:1;fill-rule:nonzero;stroke:none"
         d="m 850,4950 c 0,88.36 -116.406,160 -260,160 -143.594,0 -260,-71.64 -260,-160 0,-88.36 116.406,-160 260,-160 143.594,0 260,71.64 260,160" /><path
         id="path106"
         style="fill:none;stroke:#000000;stroke-width:10;stroke-linecap:butt;stroke-linejoin:miter;stroke-miterlimit:10;stroke-dasharray:none;stroke-opacity:1"
         d="m 850,4950 c 0,88.36 -116.406,160 -260,160 -143.594,0 -260,-71.64 -260,-160 0,-88.36 116.406,-160 260,-160 143.594,0 260,71.64 260,160" /><g
         transform="scale(10)"
         id="g108"><text
           id="text112"
           style="font-variant:normal;font-weight:normal;font-size:12px;font-family:Verdana;-inkscape-font-specification:Verdana;writing-mode:lr-tb;fill:#000000;fill-opacity:1;fill-rule:nonzero;stroke:none"
           transform="matrix(1,0,0,-1,45.8477,491)"><tspan
             id="tspan110"
             y="0"
             x="0 8.7840004 15.036 22.188">User</tspan></text>
</g><path
         id="path114"
         style="fill:#e3e3ff;fill-opacity:1;fill-rule:nonzero;stroke:none"
         d="m 260,4720 h 180 v 120 H 260 Z" /><path
         id="path116"
         style="fill:none;stroke:#4d66cc;stroke-width:10;stroke-linecap:butt;stroke-linejoin:miter;stroke-miterlimit:10;stroke-dasharray:none;stroke-opacity:1"
         d="m 260,4720 h 180 v 120 H 260 Z" /><g
         transform="scale(10)"
         id="g118"><text
           id="text122"
           style="font-variant:normal;font-weight:normal;font-size:12px;font-family:Verdana;-inkscape-font-specification:Verdana;writing-mode:lr-tb;fill:#4d66cc;fill-opacity:1;fill-rule:nonzero;stroke:none"
           transform="matrix(1,0,0,-1,28,474)"><tspan
             id="tspan120"
             y="0"
             x="0 5.052">In</tspan></text>
</g><path
         id="path124"
         style="fill:#e3e3ff;fill-opacity:1;fill-rule:nonzero;stroke:none"
         d="m 260,4720 h 180 v 120 H 260 Z" /><path
         id="path126"
         style="fill:none;stroke:#4d66cc;stroke-width:10;stroke-linecap:butt;stroke-linejoin:miter;stroke-miterlimit:10;stroke-dasharray:none;stroke-opacity:1"
         d="m 260,4720 h 180 v 120 H 260 Z" /><g
         transform="scale(10)"
         id="g128"><text
           id="text132"
           style="font-variant:normal;font-weight:normal;font-size:12px;font-family:Verdana;-inkscape-font-specification:Verdana;writing-mode:lr-tb;fill:#4d66cc;fill-opacity:1;fill-rule:nonzero;stroke:none"
           transform="matrix(1,0,0,-1,28,474)"><tspan
             id="tspan130"
             y="0"
             x="0 5.052">In</tspan></text>
</g><path
         id="path134"
         style="fill:#ffffff;fill-opacity:1;fill-rule:nonzero;stroke:none"
         d="m 50,3170 h 1080 v 480 H 50 Z" /><path
         id="path136"
         style="fill:none;stroke:#000000;stroke-width:10;stroke-linecap:butt;stroke-linejoin:miter;stroke-miterlimit:10;stroke-dasharray:none;stroke-opacity:1"
         d="m 50,3170 h 1080 v 480 H 50 Z" /><g
         transform="scale(10)"
         id="g138"><text
           id="text144"
           style="font-variant:normal;font-weight:normal;font-size:12px;font-family:Verdana;-inkscape-font-specification:Verdana;writing-mode:lr-tb;fill:#000000;fill-opacity:1;fill-rule:nonzero;stroke:none"
           transform="matrix(1,0,0,-1,33.9102,344)"><tspan
             id="tspan140"
             y="0"
             x="0 8.9759998 16.128 20.856001 30.672001 37.956001 43.080002">Network</tspan><tspan
             id="tspan142"
             y="14"
             x="-9.3339796 -2.09798 5.1140199 10.23802 14.96602 18.254021 22.982019 26.27002 33.55402 41.150021 44.438019 52.034019">Partitioning</tspan></text>
</g><path
         id="path146"
         style="fill:none;stroke:#000000;stroke-width:10;stroke-linecap:butt;stroke-linejoin:miter;stroke-miterlimit:10;stroke-dasharray:none;stroke-opacity:1"
         d="m 1130,3340 h 548.98" /><path
         id="path148"
         style="fill:#000000;fill-opacity:1;fill-rule:nonzero;stroke:none"
         d="m 1274,3400 -144,-60 144,-60 -48,60" /><path
         id="path150"
         style="fill:none;stroke:#000000;stroke-width:10;stroke-linecap:butt;stroke-linejoin:miter;stroke-miterlimit:10;stroke-dasharray:none;stroke-opacity:1"
         d="M 590,3170 V 1320 l 2.344,-35.16 7.031,-30.46 11.719,-25.79 16.406,-21.09 21.094,-16.41 25.781,-11.71 30.469,-7.04 L 740,1170 v 0 h 2050" /><path
         id="path152"
         style="fill:#000000;fill-opacity:1;fill-rule:nonzero;stroke:none"
         d="m 650,3026 -60,144 -60,-144 60,48" /><path
         id="path154"
         style="fill:#000000;fill-opacity:1;fill-rule:nonzero;stroke:none"
         d="m 2646,1110 144,60 -144,60 48,-60" /><g
         transform="scale(10)"
         id="g156"><text
           id="text160"
           style="font-variant:normal;font-weight:normal;font-size:12px;font-family:Verdana;-inkscape-font-specification:Verdana;writing-mode:lr-tb;fill:#000000;fill-opacity:1;fill-rule:nonzero;stroke:none"
           transform="matrix(1,0,0,-1,5,213)"><tspan
             id="tspan158"
             y="0"
             x="0 5.448 17.124001 22.176001 31.427999 35.796001 40.02 51.695999 58.908001 65.160004 72.755997 76.043999 83.639999 90.792 95.844002 105.096 109.464 113.688 125.364 132.576 138.828 146.424 149.71201 157.308 164.46001 176.328 183.53999 186.828 190.116 197.26801 201.996">(mID, machineID, machineWallet)</tspan></text>
</g><path
         id="path162"
         style="fill:none;stroke:#000000;stroke-width:10;stroke-linecap:butt;stroke-linejoin:miter;stroke-miterlimit:10;stroke-dasharray:none;stroke-opacity:1"
         d="m 1130,3480 h 548.98" /><path
         id="path164"
         style="fill:#000000;fill-opacity:1;fill-rule:nonzero;stroke:none"
         d="m 1534.98,3420 144,60 -144,60 48,-60" /><path
         id="path166"
         style="fill:none;stroke:#000000;stroke-width:10;stroke-linecap:butt;stroke-linejoin:miter;stroke-miterlimit:10;stroke-dasharray:none;stroke-opacity:1"
         d="M 590,3650 V 4750" /><path
         id="path168"
         style="fill:#000000;fill-opacity:1;fill-rule:nonzero;stroke:none"
         d="m 530,3794 60,-144 60,144 -60,-48" /></g></g></svg>